<?xml version="1.0" encoding="utf-8"?>
<!-- Generator: Adobe Illustrator 27.5.0, SVG Export Plug-In . SVG Version: 6.00 Build 0)  -->
<svg version="1.1" xmlns="http://www.w3.org/2000/svg" xmlns:xlink="http://www.w3.org/1999/xlink" x="0px" y="0px"
	 viewBox="0 0 750 500" style="enable-background:new 0 0 750 500;" xml:space="preserve">
<g id="BACKGROUND">
</g>
<g id="OBJECTS">
	<g>
		<ellipse style="fill:#DCDCFF;" cx="646.767" cy="264.713" rx="85.165" ry="125.722"/>
		<g>
			<defs>
				<path id="SVGID_1_" d="M730.901,265.01c0,69.434-38.13,125.722-85.165,125.722c-47.036,0-85.165-56.287-85.165-125.722
					c0-27.099-14.412-61.56-4.534-82.089c15.433-32.073,61.02-43.633,89.699-43.633C692.772,139.289,730.901,195.576,730.901,265.01
					z"/>
			</defs>
			<clipPath id="SVGID_00000157271556190070192770000000952494330408452009_">
				<use xlink:href="#SVGID_1_"  style="overflow:visible;"/>
			</clipPath>
			<g style="clip-path:url(#SVGID_00000157271556190070192770000000952494330408452009_);">
				<g>
					<path style="fill:#A15F49;" d="M725.704,389.253c-1.015,0.207-2.021,0.413-3.045,0.611c-8.48,1.644-17.121,2.83-25.709,3.656
						c0,0,0,0-0.018,0c-24.586,2.38-48.723,1.832-67.335,0.602c-4.878-0.323-9.369-0.692-13.393-1.069
						c-1.662-0.162-3.243-0.314-4.743-0.476c-10.258-1.078-16.439-2.066-16.439-2.066s-0.036-21.002,7.168-41.689
						c7.213-20.696,26.337-24.146,29.149-29.473c1.491-2.812,1.41-7.968,1.006-12.225c-0.368-3.827-1.006-6.926-1.006-6.926
						c29.473-0.036,40.62-16.771,40.62-16.771s-0.799,14.92,2.371,24.954c2.821,8.911,7.779,10.151,22.709,17.418
						c1.877,0.907,3.898,1.913,6.099,3.036c12.333,6.315,18.064,28.323,20.625,43.953
						C725.308,382.174,725.704,389.253,725.704,389.253z"/>
					<path style="opacity:0.38;fill:#703323;" d="M629.597,394.122c-4.878-0.323-9.369-0.692-13.393-1.069
						c-1.662-0.162-3.243-0.314-4.743-0.476c-0.242-0.781-0.476-1.545-0.71-2.264c-1.913-5.839-3.593-11.785-4.24-17.921
						c-0.889-8.408,0.314-17.31,4.994-24.343c0.548-0.817,1.168-1.626,2.057-2.03c2.282-1.024,4.68,1.15,6.081,3.216
						c8.112,11.911,9.558,27.038,9.944,41.438C629.624,391.822,629.642,392.981,629.597,394.122z"/>
					<path style="fill:#837CDC;" d="M696.95,393.52c0,0,0,0-0.018,0c-4.68,0.449-9.342,0.799-13.95,1.06
						c-25.969,1.437-50.313,0.018-66.778-1.527c-4.204-12.764-6.189-22.385-6.45-29.814c-0.269-7.842,5.515-18.145,5.515-18.145
						c24.523-9.055,48.696-6.513,64.02-3.072c10.079,2.264,16.331,4.913,16.331,4.913C699.052,368.575,696.95,393.52,696.95,393.52z
						"/>
					<path style="opacity:0.18;fill:#001B47;" d="M696.95,393.52c0,0,0,0-0.018,0c-4.68,0.449-9.342,0.799-13.95,1.06
						c0.602-8.345,1.213-16.69,1.024-25.044c-0.216-9.324-1.473-18.738-4.716-27.514c10.079,2.264,16.331,4.913,16.331,4.913
						C699.052,368.575,696.95,393.52,696.95,393.52z"/>
					<path style="fill:#A15F49;" d="M735.414,403.3c-28.831,4.458-37.76-33.319-37.828-33.404
						c-0.068-0.085-0.721-16.686-1.975-22.956c0,0-4.107-18.056,7.524-18.104C721.945,328.756,735.414,403.3,735.414,403.3z"/>
					<path style="opacity:0.38;fill:#703323;" d="M725.704,389.253c-1.015,0.207-2.021,0.413-3.045,0.611
						c-3.431-12.01-5.83-24.415-10.267-36.102c-1.823-4.779-4.042-9.531-7.599-13.214c-7.052-7.294-18.055-9.207-26.104-15.388
						c-4.536-3.476-8.031-8.3-9.926-13.69c-1.222-3.494-2.3-7.779-5.803-8.956c-2.183-0.728-4.536,0.081-6.728,0.781
						c-6.539,2.084-15.531,4.078-23.885,3.827c-0.368-3.827-1.006-6.926-1.006-6.926c29.473-0.036,40.62-16.771,40.62-16.771
						s-0.799,14.92,2.371,24.954c3.171,10.025,9.055,10.339,28.808,20.454C722.883,338.949,725.704,389.253,725.704,389.253z"/>
					<path style="opacity:0.38;fill:#703323;" d="M723.763,372.788c-3.791,0.799-7.186-0.907-9.683-6.54
						c-7.968-17.992-14.022-32.877-17.04-40.449c1.877,0.907,3.898,1.913,6.099,3.036
						C715.472,335.15,721.203,357.158,723.763,372.788z"/>
				</g>
				<g>
					<g>
						<g>
							<path style="fill:#4C250B;" d="M706.157,252.014c-0.198,8.525-12.172,13.555-12.172,13.555s-7.806,1.5-14.211-2.515
								c-5.479-3.441-9.944-10.923-7.581-26.868c0,0-18.46-2.354-21.406-20.023c0,0-11.193,4.123-17.471-5.3
								c0,0-7.069,14.723-27.101,13.546c0,0,3.737,8.633-7.07,14.92c0,0-2.551,7.986-5.3,14.894
								c-2.749,6.899,1.177,17.13,1.177,17.13s-18.846-4.95-14.92-23.203c0,0-6.872,1.572-9.028-4.797
								c-2.165-6.378,1.374-9.324,1.374-9.324s-4.914-2.946-2.946-9.621c1.958-6.674,6.674-7.07,6.674-7.07
								s-15.118-5.893-8.444-26.113c6.674-20.229,28.08-20.427,34.359-15.711c0,0,1.222-10.995,9.351-11.588
								c8.13-0.584,13.429,7.267,13.429,7.267s3.944-13.825,11.848-16.151c0.728-0.224,1.491-0.341,2.291-0.341
								c9.423,0,12.558,10.797,12.558,10.797s8.139-7.069,13.986-3.728c5.848,3.342,2.497,14.139,2.497,14.139
								s8.022-10.995,15.603-5.695c7.581,5.3,1.788,17.867,1.788,17.867s8.543-3.925,12.863,2.946
								c4.159,6.62-3.162,12.872-3.701,13.322c0.692-0.377,9.944-5.381,14.103,1.994c4.195,7.429-7.141,13.564-7.815,13.932
								c0.584-0.198,8.129-2.569,8.74,6.486c0.629,9.189-10.375,19.008-10.923,19.502
								C699.07,246.148,706.346,243.705,706.157,252.014z"/>
							<path style="opacity:0.75;fill:#351906;" d="M706.157,252.014c-0.198,8.525-12.172,13.555-12.172,13.555
								s-7.806,1.5-14.211-2.515c2.327-4.869,1.985-11.076-2.488-13.816c3.701-0.772,6.899-3.602,8.112-7.177
								c1.213-3.575,0.404-7.77-2.057-10.636c4.033-1.078,6.926-5.399,6.369-9.54s-4.491-7.555-8.668-7.519
								c4.294-0.656,5.794-6.881,3.171-10.339c-2.623-3.449-7.581-4.294-11.848-3.548c3.404-3.405,3.081-9.755-0.647-12.8
								c-3.728-3.054-10.016-2.102-12.675,1.913c1.761-3.306,2.407-7.59,0.278-10.672c-2.138-3.072-7.689-3.449-9.297-0.063
								c-0.054-4.734-0.359-9.567-2.129-13.95c-1.77-4.392-5.237-8.327-9.8-9.576c-0.476-0.135-0.934-0.225-1.374-0.288
								c0.728-0.224,1.491-0.341,2.291-0.341c9.423,0,12.558,10.797,12.558,10.797s8.139-7.069,13.986-3.728
								c5.848,3.342,2.497,14.139,2.497,14.139s8.022-10.995,15.603-5.695c7.581,5.3,1.788,17.867,1.788,17.867
								s8.543-3.925,12.863,2.946c4.159,6.62-3.162,12.872-3.701,13.322c0.692-0.377,9.944-5.381,14.103,1.994
								c4.195,7.429-7.141,13.564-7.815,13.932c0.584-0.198,8.129-2.569,8.74,6.486c0.629,9.189-10.375,19.008-10.923,19.502
								C699.07,246.148,706.346,243.705,706.157,252.014z"/>
						</g>
						<g>
							<g>
								<path style="fill:#A15F49;" d="M683.577,258.69c0,0,6.283-5.773,11.585,0c5.301,5.773-1.693,22.762-14.689,20.256
									L683.577,258.69z"/>
								<path style="opacity:0.61;fill:#8C1F1F;" d="M689.664,263.103c4.775-0.023,0.589,9.663-2.749,9.732
									C683.577,272.905,686.523,263.118,689.664,263.103z"/>
								<path style="fill:#A15F49;" d="M591.937,263.103c0,0-6.141-3.828-8.104,1.907c-1.964,5.735,3.927,15.067,11.192,13.935
									L591.937,263.103z"/>
							</g>
							<g>
								<path style="fill:#A15F49;" d="M650.194,302.353c-3.809,0.566-7.51,0.943-11.076,1.096
									c-30.667,1.348-51.911-13.169-50.348-54.05c0-0.278,0.018-0.566,0.027-0.844c0,0,1.716-0.808,3.225-2.569
									c0.018-0.009,0.018-0.009,0.018-0.018c0.323-0.386,0.647-0.826,0.934-1.303c0.009,0,0.009-0.009,0.009-0.009
									c0.961-1.617,1.581-3.764,1.06-6.504c0,0,10.689-2.946,6.62-17.867c0,0,22.834,3.333,33.039-13.941
									c0,0,4.716,9.621,18.064,7.653c0,0,3.108,10.016,14.516,8.246c0,0-1.159,12.181,9.836,10.016c0,0-3.18,7.842-1.788,16.295
									c1.392,8.444,9.243,10.133,9.243,10.133S686.916,296.856,650.194,302.353z"/>
								<path style="opacity:0.38;fill:#703323;" d="M592.022,245.986c-0.952,1.249-2.048,2.389-3.252,3.413
									c0-0.278,0.018-0.566,0.027-0.844C588.797,248.555,590.513,247.747,592.022,245.986z"/>
								<path style="opacity:0.38;fill:#703323;" d="M650.194,302.353c-3.809,0.566-7.51,0.943-11.076,1.096
									c5.992-1.904,11.705-4.527,16.708-8.318c8.596-6.504,14.768-17.031,13.663-27.766c-0.692-6.737-4.132-13.303-2.946-19.978
									c0.225-1.258,0.602-2.56,0.189-3.764c-0.413-1.24-1.563-2.057-2.524-2.946c-3.027-2.848-4.455-7.303-3.638-11.372
									c-4.851,0.629-9.773-3.539-9.944-8.426c-6.243,1.374-13.106-0.539-17.741-4.923c-6.692,7.716-17.66,11.462-27.676,9.459
									c0.045,6.072-4.024,11.956-9.719,14.058c-0.593,1.833-1.446,3.575-2.506,5.183c0.961-1.617,1.581-3.764,1.06-6.504
									c0,0,10.689-2.946,6.62-17.867c0,0,22.834,3.333,33.039-13.941c0,0,4.716,9.621,18.064,7.653c0,0,3.108,10.016,14.516,8.246
									c0,0-1.159,12.181,9.836,10.016c0,0-3.18,7.842-1.788,16.295c1.392,8.444,9.243,10.133,9.243,10.133
									S686.916,296.856,650.194,302.353z"/>
							</g>
						</g>
					</g>
					<g>
						<g>
							<g>
								<path style="fill:none;stroke:#4C250B;stroke-width:1.3474;stroke-linecap:round;stroke-miterlimit:10;" d="
									M639.985,257.368c0,0,4.271,11.238,13.261,10.789c8.99-0.45,13.036-13.935,13.036-13.935"/>
								
									<line style="fill:none;stroke:#4C250B;stroke-width:1.3474;stroke-linecap:round;stroke-miterlimit:10;" x1="665.555" y1="256.223" x2="670.553" y2="257.818"/>
								
									<line style="fill:none;stroke:#4C250B;stroke-width:1.3474;stroke-linecap:round;stroke-miterlimit:10;" x1="664.438" y1="258.69" x2="669.204" y2="261.196"/>
								
									<line style="fill:none;stroke:#4C250B;stroke-width:1.3474;stroke-linecap:round;stroke-miterlimit:10;" x1="663.019" y1="261.196" x2="666.821" y2="265.01"/>
							</g>
							<g>
								<path style="fill:none;stroke:#4C250B;stroke-width:1.3474;stroke-linecap:round;stroke-miterlimit:10;" d="M611.44,260.07
									c0,0-1.597,10.07-9.057,11.203c-7.46,1.133-13.074-9.414-13.074-9.414"/>
								
									<line style="fill:none;stroke:#4C250B;stroke-width:1.3474;stroke-linecap:round;stroke-miterlimit:10;" x1="590.247" y1="263.403" x2="586.413" y2="265.569"/>
								
									<line style="fill:none;stroke:#4C250B;stroke-width:1.3474;stroke-linecap:round;stroke-miterlimit:10;" x1="591.583" y1="265.269" x2="588.095" y2="268.154"/>
								
									<line style="fill:none;stroke:#4C250B;stroke-width:1.3474;stroke-linecap:round;stroke-miterlimit:10;" x1="593.174" y1="267.117" x2="590.7" y2="270.93"/>
							</g>
						</g>
						
							<path style="opacity:0.61;fill:none;stroke:#4C250B;stroke-width:1.3474;stroke-linecap:round;stroke-linejoin:round;stroke-miterlimit:10;" d="
							M620.206,248.153l3.371,24.682c0,0-5.394-2.436-8.316-4.681c0,0,1.124,6.071,6.069,10.791"/>
						
							<path style="opacity:0.61;fill:none;stroke:#4C250B;stroke-width:1.3474;stroke-linecap:round;stroke-linejoin:round;stroke-miterlimit:10;" d="
							M619.419,284.34c0,0,10.002,1.798,20.566-5.394"/>
						<g style="opacity:0.38;">
							<path style="fill:#8C1F1F;" d="M674.333,277.289c0,2.46-4.746,4.454-10.6,4.454c-5.854,0-10.6-1.994-10.6-4.454
								c0-2.46,4.746-4.454,10.6-4.454C669.587,272.836,674.333,274.829,674.333,277.289z"/>
							<path style="fill:#8C1F1F;" d="M609.754,279.349c0,2.25-4.341,4.074-9.695,4.074c-5.355,0-9.695-1.824-9.695-4.074
								c0-2.25,4.341-4.074,9.695-4.074C605.414,275.275,609.754,277.099,609.754,279.349z"/>
						</g>
						<g>
							<g>
								<path style="fill:#4C250B;" d="M643.244,246.021c1.073,1.207,5.824-2.24,12.431-2.128c6.608,0.112,9.748,2.464,11.146,1.68
									c1.397-0.784-4.704-5.152-11.788-5.152C647.948,240.422,642.348,245.014,643.244,246.021z"/>
								<path style="fill:#4C250B;" d="M612.468,249.21c-0.901,1.34-6.072-1.437-12.604-0.439
									c-6.533,0.999-9.329,3.751-10.819,3.162c-1.49-0.589,3.969-5.737,10.99-6.689C607.054,244.292,613.22,248.09,612.468,249.21
									z"/>
							</g>
						</g>
					</g>
				</g>
				<g>
					<g>
						<g>
							<g>
								<g>
									<path style="fill:#FFFFFF;" d="M656.326,302.498c-0.384,0-0.705-0.108-0.995-0.314c-1.959-1.392-1.614-4.901-1.526-5.59
										c0.087-0.668,0.706-1.142,1.364-1.053c0.668,0.086,1.14,0.696,1.057,1.364c-0.139,1.107-0.025,2.514,0.342,3.093
										c1.429-0.475,5.65-3.77,7.982-5.59c2.145-1.675,3.997-3.119,5.002-3.649c2.863-1.511,7.445-0.704,7.957-0.607
										c0.662,0.125,1.096,0.762,0.972,1.423c-0.125,0.661-0.76,1.1-1.423,0.973c-1.165-0.217-4.575-0.578-6.369,0.369
										c-0.813,0.429-2.672,1.878-4.639,3.414C660.439,300.71,657.876,302.498,656.326,302.498z M656.745,300.194h0.012H656.745z"
										/>
								</g>
								<g>
									<path style="fill:#FFFFFF;" d="M677.371,290.519c-0.139,0-0.282-0.024-0.42-0.075c-0.49-0.18-4.833-1.838-6.516-4.607
										c-0.591-0.971-1.438-3.163-2.419-5.701c-1.067-2.759-2.998-7.753-3.979-8.894c-0.612,0.307-1.433,1.457-1.882,2.477
										c-0.27,0.616-0.992,0.9-1.606,0.628c-0.617-0.269-0.898-0.986-0.63-1.603c0.277-0.637,1.783-3.824,4.179-4.013
										c1.807-0.133,2.993,2.247,6.192,10.524c0.9,2.33,1.751,4.528,2.229,5.314c1.058,1.74,4.165,3.178,5.273,3.585
										c0.633,0.232,0.956,0.933,0.724,1.565C678.335,290.214,677.868,290.519,677.371,290.519z"/>
								</g>
							</g>
							<path style="fill:#3BA874;" d="M663.677,276.034c-0.207,3.925-0.97,11.022-3.728,18.855c-0.575,1.626-2.129,2.74-3.854,2.659
								c-0.243-0.009-0.503-0.027-0.773-0.063c-0.404-0.045-0.835-0.117-1.276-0.225c-1.895-0.458-3.162-2.273-2.973-4.222
								c0.395-4.105,1.428-11.875,3.925-18.639c0.584-1.563,2.084-2.614,3.755-2.587c0.332,0.009,0.692,0.018,1.06,0.054
								c0.144,0.009,0.287,0.027,0.44,0.045C662.294,272.162,663.776,273.986,663.677,276.034z"/>
							<path style="opacity:0.18;fill:#004940;" d="M663.677,276.034c-0.207,3.925-0.97,11.022-3.728,18.855
								c-0.575,1.626-2.129,2.74-3.854,2.659c-0.243-0.009-0.503-0.027-0.773-0.063c3.494-7.671,5.102-16.214,4.581-24.631
								c-0.018-0.323-0.045-0.656-0.09-0.988c0.144,0.009,0.287,0.027,0.44,0.045C662.294,272.162,663.776,273.986,663.677,276.034z
								"/>
						</g>
						<g>
							<path style="fill:#773C2C;" d="M737.072,299.49c-0.012,0.037-0.024,0.085-0.037,0.122c-0.463,2.232-2.61,3.72-4.866,3.354
								c-8.989-1.451-32.845-5.366-48.297-8.293c-2.403-0.451-4.61-0.878-6.513-1.268c-1.146-0.244-1.927-1.329-1.768-2.5
								c0.073-0.537,0.219-1.171,0.488-1.878c0.366-0.951,1.329-1.537,2.342-1.427c1.317,0.146,3.415,0.366,6.098,0.671
								c10.989,1.22,31.784,3.598,48.981,6.11C735.937,294.734,737.56,297.063,737.072,299.49z"/>
							<path style="fill:#837CDC;" d="M684.518,288.27c-0.232,1.805-0.476,3.976-0.646,6.403c-2.403-0.451-4.61-0.878-6.513-1.268
								c-1.146-0.244-1.927-1.329-1.768-2.5c0.073-0.537,0.219-1.171,0.488-1.878c0.366-0.951,1.329-1.537,2.342-1.427
								C679.737,287.745,681.834,287.965,684.518,288.27z"/>
						</g>
					</g>
					<g>
						<path style="fill:#A15F49;" d="M748.143,389.163c-0.081,2.461-0.602,4.572-1.446,6.351c-3.62,7.689-13.259,9.288-19.591,7.025
							c-7.806-2.785-9.899-22.574-13.797-39.848c-3.899-17.274-7.662-30.649-7.662-30.649c-4.878-5.021-6.548-13.241-12.396-18.397
							c-5.857-5.147-11.291-10.582-9.594-12.819c1.698-2.228,4.159,1.258,7.357,4.321c3.108,2.973,8.83,6.989,9.18,7.24
							c-2.794-2.677-9.594-10.312-11.48-13.645c-1.895-3.342,0.907-6.548,3.108-3.44c2.12,3.018,11.669,11.39,12.261,11.911
							c-0.548-0.584-9.36-10.016-10.977-14.741c-1.671-4.878,3.063-4.455,4.878-1.949c1.734,2.389,10.788,13.151,11.624,14.139
							c-0.53-0.701-4.815-6.432-6.611-9.36c-1.905-3.126-3.647-5.336-2.785-7.716c0.072-0.198,0.162-0.359,0.278-0.485
							c1.258-1.428,4.958,1.177,7.384,4.024c2.65,3.117,8.129,11.157,11.013,16.115c3.198,5.506,3.898,13.788,6.126,19.367
							C727.24,332.176,748.556,376.066,748.143,389.163z"/>
						<path style="opacity:0.38;fill:#703323;" d="M748.143,389.163c-0.081,2.461-0.602,4.572-1.446,6.351
							c0.072-0.242,0.126-0.485,0.18-0.728c1.132-5.453-0.88-11.022-2.937-16.205c-4.366-11.049-9.046-21.981-13.717-32.913
							c-1.41-3.288-2.812-6.575-4.222-9.863c-0.979-2.309-1.967-4.617-3.126-6.845c-0.835-1.599-1.752-3.162-2.461-4.824
							c-1.572-3.665-2.093-7.671-3.207-11.498c-1.886-6.504-5.461-12.333-9.513-17.696c-1.042-1.383-4.491-4.608-7.204-7.842
							c1.258-1.428,4.958,1.177,7.384,4.024c2.65,3.117,8.129,11.157,11.013,16.115c3.198,5.506,3.898,13.788,6.126,19.367
							C727.24,332.176,748.556,376.066,748.143,389.163z"/>
					</g>
				</g>
			</g>
		</g>
	</g>
	<g>
		<ellipse style="fill:#C5FFF4;" cx="467.51" cy="265.01" rx="85.165" ry="125.722"/>
		<g>
			<defs>
				<path id="SVGID_00000069381287696164101500000005694453182931482547_" d="M552.675,265.01
					c0,69.434-38.13,125.722-85.165,125.722c-47.036,0-85.165-56.287-85.165-125.722c0-39.265,1.671-85.086,20.773-108.141
					c14.677-17.714,43.956-17.581,64.392-17.581c11.759,0,23.639-23.141,45.797-8.769C543.54,150.13,552.675,212.935,552.675,265.01
					z"/>
			</defs>
			<clipPath id="SVGID_00000118366007530170011920000009264702470313403008_">
				<use xlink:href="#SVGID_00000069381287696164101500000005694453182931482547_"  style="overflow:visible;"/>
			</clipPath>
			<g style="clip-path:url(#SVGID_00000118366007530170011920000009264702470313403008_);">
				<g>
					<g>
						<path style="fill:#8E4833;" d="M488.826,171.664c-1.285-0.907-2.569-1.949-3.845-3.144
							c-19.43-18.217-3.539-41.06,14.858-37.036c3.908,0.853,7.923,2.919,11.75,6.504
							C534.296,159.277,511.318,187.366,488.826,171.664z"/>
						<path style="opacity:0.19;fill:#512214;" d="M488.826,171.664c1.087-0.629,2.21-1.186,3.333-1.662
							c5.875-2.497,12.531-4.195,16.591-9.117c3.144-3.818,4.159-9.145,3.153-13.986c-1.006-4.833-3.89-9.171-7.626-12.405
							c-1.347-1.168-2.839-2.219-4.438-3.009c3.908,0.853,7.923,2.919,11.75,6.504C534.296,159.277,511.318,187.366,488.826,171.664
							z"/>
					</g>
					<g>
						<path style="fill:#8E4833;" d="M485.313,289.168c-1.383,0.153-2.803,0.279-4.258,0.386c-3.009,0.225-5.938,0.404-8.785,0.539
							c-23.948,1.141-42.345-0.799-56.214-5.282c-10.663-3.44-18.648-8.399-24.415-14.606c-12.765-13.753,5.057-16.816,9.98-34.656
							c0.548-1.967,0.934-4.105,1.105-6.468c0.593-8.201,0.647-15.828,0.458-22.304c-0.35-12.315-1.572-20.472-1.572-20.472
							s-2.614,0.341-3.431,0c0,0,2.946-31.413,47.276-37.413c0.943-0.126,1.877-0.243,2.812-0.332h0.009
							c42.542-4.348,66.042,25.736,66.581,51.058c0.548,25.879,1.635,30.236,12.54,44.689
							C537.97,258.312,529.329,284.362,485.313,289.168z"/>
						<path style="opacity:0.19;fill:#512214;" d="M472.369,289.635c-0.027,0.153-0.063,0.306-0.099,0.458
							c-23.948,1.141-42.345-0.799-56.214-5.282c3.458-2.641,6.926-5.282,10.384-7.923c2.066-1.572,4.159-3.18,5.668-5.3
							c1.509-2.12,2.362-4.86,1.635-7.357c-1.159-3.97-5.551-5.821-9.288-7.581c-8.686-4.105-16.259-10.672-21.433-18.783
							c-0.467-0.728-0.934-1.509-1.401-2.318c0.548-1.967,0.934-4.105,1.105-6.468c0.593-8.201,0.647-15.828,0.458-22.304
							c1.698-1.123,3.557-2.012,5.426-2.794c3.458-1.446,7.087-2.596,10.824-2.928c8.363-0.719,16.537,2.758,23.76,7.025
							c4.761,2.812,9.324,6.027,13.169,9.998c6.225,6.414,10.348,14.606,13.169,23.086
							C474.695,256.704,475.684,273.601,472.369,289.635z"/>
						<path style="opacity:0.19;fill:#512214;" d="M485.313,289.168c-2.875-3.405-5.246-7.258-6.998-11.336
							c-4.77-11.112-5.3-23.706-3.216-35.608c0.53-3.018,1.24-6.054,2.704-8.74c4.716-8.641,16.016-11.821,21.208-20.175
							c2.731-4.393,3.449-9.773,3.108-14.938c-0.611-9.216-4.428-18.046-9.926-25.475c-7.222-9.755-17.507-17.076-28.907-21.137
							c-4.905-1.752-9.926-2.677-15.01-3.198c42.542-4.348,66.042,25.736,66.581,51.058c0.548,25.879,1.635,30.236,12.54,44.689
							C537.97,258.312,529.329,284.362,485.313,289.168z"/>
					</g>
				</g>
				<g>
					<path style="fill:#63B7A7;" d="M521.379,318.793c-1.536,28.943-6.405,44.303-3.072,75.294c0,0-8.165,1.024-20.625,1.949
						c-6.297,0.467-13.681,0.916-21.658,1.195c-19.538,0.665-42.641,0.324-62.017-3.144c0,0,0.359-20.687,0.494-40.988
						c0.018-3.279,0.027-6.548,0.036-9.719c0.036-21.424-2.749-43.746,16.403-63.589c1.222-1.267,2.542-2.524,3.952-3.773
						c0,0,13.322-8.453,32.617-7.68c19.295,0.764,26.544,1.15,32.608,4.357C506.189,275.891,522.915,289.851,521.379,318.793z"/>
					<path style="opacity:0.18;fill:#004940;" d="M521.379,318.793c-1.536,28.943-6.405,44.303-3.072,75.294
						c0,0-8.165,1.024-20.625,1.949c-6.297,0.467-13.681,0.916-21.658,1.195c-0.35-1.743-0.827-3.44-1.491-5.093
						c-0.503-1.258-1.159-2.524-2.255-3.315c-2.569-1.85-6.072-0.395-9.153,0.35c-14.444,3.467-30.416-5.102-37.647-17.13
						c-3.728-6.189-7.483-12.504-10.977-18.945c0.018-3.279,0.027-6.548,0.036-9.719c0.036-21.424-2.749-43.746,16.403-63.589
						c1.222-1.267,2.542-2.524,3.952-3.773c0,0,13.322-8.453,32.617-7.68c19.295,0.764,26.544,1.15,32.608,4.357
						C506.189,275.891,522.915,289.851,521.379,318.793z"/>
					<path style="opacity:0.18;fill:#004940;" d="M521.379,318.793c-1.536,28.943-6.405,44.303-3.072,75.294
						c0,0-8.165,1.024-20.625,1.949c-2.452-7.186-4.087-14.57-4.375-22.188c-0.449-11.678,2.309-23.211,3.818-34.799
						c1.509-11.588,1.653-23.903-3.611-34.332c-2.318-4.599-6.189-9.001-11.3-9.567c-3.099-0.35-6.144,0.763-9.171,1.509
						c-5.479,1.347-11.246,1.293-16.744,0.081c-9.782-2.165-18.828-7.959-24.739-16.061c-0.216-0.287-0.422-0.584-0.62-0.889
						c1.222-1.267,2.542-2.524,3.952-3.773c0,0,13.322-8.453,32.617-7.68c19.295,0.764,26.544,1.15,32.608,4.357
						C506.189,275.891,522.915,289.851,521.379,318.793z"/>
				</g>
				<g>
					<g>
						<path style="fill:#CB865C;" d="M500.126,272.694c0,0-13.807,21.765-38.545,21.765c-4.042,0-7.474-0.494-10.384-1.32
							c-14.929-4.213-16.304-17.112-16.304-17.112s0.997-0.62,2.327-1.689c1.743-1.392,4.087-3.539,5.533-6
							c1.069-1.824,1.527-6.306,1.707-10.896c0.243-6.36-0.063-12.926-0.063-12.926s26.535-6.18,43.171-31.655
							c0,0-1.024,17.831,0,30.631c1.024,12.809,1.284,18.963,3.845,22.789c1.195,1.797,3.171,3.315,4.941,4.411
							C498.374,271.966,500.126,272.694,500.126,272.694z"/>
						<path style="opacity:0.09;fill:#49170B;" d="M500.126,272.694c0,0-13.807,21.765-38.545,21.765
							c-4.042,0-7.474-0.494-10.384-1.32c3.926-1.482,8.156-2.425,12.217-3.539c7.231-1.985,14.911-5.255,18.19-11.992
							c3.602-7.384,0.674-16.133-2.282-23.795c-0.53-1.356-1.222-2.883-2.614-3.333c-0.835-0.27-1.752-0.072-2.614,0.144
							c-9.935,2.569-19.708,8.219-29.634,6.818c0.243-6.36-0.063-12.926-0.063-12.926s26.535-6.18,43.171-31.655
							c0,0-1.024,17.831,0,30.631c1.024,12.809,1.284,18.963,3.845,22.789c1.195,1.797,3.171,3.315,4.941,4.411
							C498.374,271.966,500.126,272.694,500.126,272.694z"/>
						<path style="fill:#FFFFFF;" d="M500.126,272.691c0,0-13.809,21.765-38.543,21.765c-24.723,0-26.689-18.433-26.689-18.433
							s0.993-0.619,2.328-1.687c2.136,5.628,7.647,14.482,21.317,16.03c14.887,1.687,28.365-9.516,37.817-19.672
							C498.374,271.965,500.126,272.691,500.126,272.691z"/>
					</g>
					<g>
						<g>
							<path style="fill:#CB865C;" d="M494.494,222.731c0,0-0.772,24.757-31.287,30.568c-8.174,1.554-16.852,2.416-25.062,1.635
								c-16.106-1.527-30.434-9.369-35.689-30.586c-0.683-2.776-1.222-5.794-1.572-9.046c-0.844-7.564-0.754-16.448,0.467-26.85
								c0.081-0.71,0.171-1.419,0.26-2.147c0,0,9.513,0.404,17.606,0c0,0,2.021-9.1,10.707-15.154
								c-0.341,0.413-5.857,7.114-6.252,14.956c0,0,13.555,1.006,26.913-1.626c0,0-0.404-6.063,2.623-13.348
								c0,0-0.907,7.689,0.764,13.555c0,0,16.241,3.234,27.972,1.419c0,0,0.809-7.276-2.219-16.376
								c0.251,0.314,4.276,5.623,5.462,17.382l5.866,0.404c0,0-4.249,16.798,0.809,11.13c0,0,7.483-6.477,13.357,0
								C511.085,205.125,505.623,221.923,494.494,222.731z"/>
							<path style="opacity:0.69;fill:#BA3838;" d="M499.752,204.923c4.047,0.809,2.631,9.51-2.023,10.117
								C493.075,215.648,495.705,204.114,499.752,204.923z"/>
							<path style="opacity:0.09;fill:#49170B;" d="M494.494,222.731c0,0-0.772,24.757-31.287,30.568
								c-8.174,1.554-16.852,2.416-25.062,1.635c0.458-0.036,0.916-0.081,1.374-0.135c13.357-1.464,26.203-8.605,33.641-19.789
								c7.438-11.184,8.938-26.346,2.919-38.356c-0.755-1.5-1.635-2.973-2.901-4.087c-5.596-4.941-15.423-0.647-21.307-5.255
								c-8.758,1.455-17.669,2.075-26.553,1.833c-1.779-0.045-4.024-0.494-4.509-2.147c0.261,1.5-2.111,2.219-3.773,2.093
								c-4.86-0.359-10.447-0.09-15.684-0.638c0.081-0.71,0.171-1.419,0.26-2.147c0,0,9.513,0.404,17.606,0
								c0,0,2.021-9.1,10.707-15.154c-0.341,0.413-5.857,7.114-6.252,14.956c0,0,13.555,1.006,26.913-1.626
								c0,0-0.404-6.063,2.623-13.348c0,0-0.907,7.689,0.764,13.555c0,0,16.241,3.234,27.972,1.419c0,0,0.809-7.276-2.219-16.376
								c0.251,0.314,4.276,5.623,5.462,17.382l5.866,0.404c0,0-4.249,16.798,0.809,11.13c0,0,7.483-6.477,13.357,0
								C511.085,205.125,505.623,221.923,494.494,222.731z"/>
						</g>
						<g>
							
								<path style="opacity:0.61;fill:none;stroke:#4C250B;stroke-width:1.3474;stroke-linecap:round;stroke-linejoin:round;stroke-miterlimit:10;" d="
								M428.299,188.735c0,0,1.79,18.346-1.044,27.594c0,0-4.624,0.141-7.905-2.763c0,0,1.044,7.835,6.414,10.072"/>
							<g style="opacity:0.82;">
								<g>
									<path style="fill:none;stroke:#4C250B;stroke-width:1.3474;stroke-linecap:round;stroke-miterlimit:10;" d="
										M441.276,203.203c0,0,4.624,7.607,15.662,5.668c11.038-1.939,12.38-10.441,12.38-10.441"/>
									
										<line style="fill:none;stroke:#4C250B;stroke-width:1.3474;stroke-linecap:round;stroke-miterlimit:10;" x1="468.996" y1="199.615" x2="473.196" y2="200.816"/>
									
										<line style="fill:none;stroke:#4C250B;stroke-width:1.3474;stroke-linecap:round;stroke-miterlimit:10;" x1="466.926" y1="203.373" x2="471.096" y2="206.186"/>
									
										<line style="fill:none;stroke:#4C250B;stroke-width:1.3474;stroke-linecap:round;stroke-miterlimit:10;" x1="463.878" y1="206.186" x2="466.926" y2="209.973"/>
								</g>
								<g>
									<path style="fill:none;stroke:#4C250B;stroke-width:1.3474;stroke-linecap:round;stroke-miterlimit:10;" d="
										M403.241,201.673c0,0,0.149,5.062,5.37,6.852c5.22,1.79,10.739-2.536,10.739-2.536"/>
									
										<line style="fill:none;stroke:#4C250B;stroke-width:1.3474;stroke-linecap:round;stroke-miterlimit:10;" x1="403.241" y1="203.373" x2="399.81" y2="203.809"/>
									
										<line style="fill:none;stroke:#4C250B;stroke-width:1.3474;stroke-linecap:round;stroke-miterlimit:10;" x1="404.451" y1="205.316" x2="401.004" y2="208.08"/>
									
										<line style="fill:none;stroke:#4C250B;stroke-width:1.3474;stroke-linecap:round;stroke-miterlimit:10;" x1="407.545" y1="208.08" x2="404.451" y2="211.705"/>
								</g>
							</g>
							
								<path style="opacity:0.61;fill:none;stroke:#4C250B;stroke-width:1.3474;stroke-linecap:round;stroke-linejoin:round;stroke-miterlimit:10;" d="
								M413.98,226.472c0,0,16.706,7.458,31.472-2.834"/>
							<g>
								<g>
									<path style="fill:#8E4833;" d="M440.554,194.724c1.303,1.486,5.071-3.179,13.275-3.477
										c8.204-0.298,13.723,2.817,15.065,1.856s-6.563-5.734-15.363-5.436C444.731,187.965,438.764,192.682,440.554,194.724z"/>
									<path style="fill:#8E4833;" d="M419.75,194.652c-0.684,1.578-3.729-1.687-9.184-1.333c-5.455,0.354-8.73,2.816-9.731,1.968
										c-1.001-0.848,3.653-5.145,9.502-5.546C416.186,189.34,420.689,192.483,419.75,194.652z"/>
								</g>
							</g>
							<g style="opacity:0.43;">
								<path style="fill:#BA3838;" d="M484.979,218.641c0,3.172-4.875,5.743-10.888,5.743c-6.014,0-10.889-2.571-10.889-5.743
									c0-3.171,4.875-5.742,10.889-5.742C480.104,212.898,484.979,215.469,484.979,218.641z"/>
								<path style="fill:#BA3838;" d="M411.295,219.722c0,2.578-3.539,4.662-7.905,4.662c-0.314,0-0.629-0.009-0.934-0.036
									c-0.683-2.776-1.222-5.794-1.572-9.046c0.79-0.162,1.635-0.243,2.506-0.243C407.756,215.06,411.295,217.153,411.295,219.722
									z"/>
							</g>
						</g>
					</g>
				</g>
				<g>
					<g>
						<g>
							<g>
								<g>
									<path style="fill:#FFFFFF;" d="M447.011,240.102c-0.256,0-0.513-0.092-0.717-0.276c-0.437-0.396-0.47-1.071-0.075-1.508
										c1.178-1.302,2.295-2.827,2.389-3.265c0.089-0.693-0.261-2.966-0.703-5.845l-0.37-2.428
										c-0.359-2.387-1.291-10.321,1.773-12.201c2.651-1.631,5.522,2.053,5.84,2.477c0.353,0.471,0.258,1.139-0.213,1.493
										c-0.471,0.352-1.14,0.26-1.495-0.212c-0.682-0.903-2.267-2.402-3.015-1.938c-1.031,0.632-1.604,4.569-0.779,10.063
										l0.369,2.421c0.54,3.514,0.837,5.449,0.708,6.455c-0.162,1.249-2.097,3.502-2.922,4.413
										C447.592,239.985,447.302,240.102,447.011,240.102z"/>
								</g>
								<g>
									<path style="fill:#FFFFFF;" d="M467.883,241.423c-2.75,0-5.706-0.607-7.001-0.908l-2.418-0.567
										c-2.819-0.665-5.061-1.185-5.755-1.156c-0.432,0.058-2.042,1.05-3.431,2.122c-0.468,0.36-1.138,0.273-1.498-0.194
										c-0.36-0.467-0.273-1.138,0.193-1.498c0.973-0.75,3.372-2.502,4.631-2.565c1.011-0.043,2.906,0.397,6.352,1.211
										l2.411,0.566c5.411,1.256,9.382,0.996,10.094,0.02c0.516-0.708-0.871-2.434-1.693-3.158
										c-0.442-0.389-0.485-1.065-0.095-1.507c0.389-0.442,1.065-0.486,1.507-0.095c0.398,0.35,3.84,3.501,2.007,6.018
										C472.234,241.018,470.127,241.423,467.883,241.423z"/>
								</g>
							</g>
							<path style="fill:#3BA874;" d="M472.27,233.609c-0.09,0.117-0.18,0.234-0.279,0.35c-0.413,0.503-0.925,1.033-1.581,1.545
								c-1.078,0.835-2.569,0.907-3.755,0.242c-3.306-1.868-10.258-6.477-14.184-13.986c-0.629-1.204-0.512-2.668,0.323-3.737
								c0.171-0.215,0.359-0.44,0.575-0.665c0.449-0.458,1.015-0.934,1.707-1.374c1.069-0.692,2.452-0.674,3.548-0.027
								c2.758,1.617,8.381,5.632,13.699,13.726C473.106,230.879,473.115,232.451,472.27,233.609z"/>
							<path style="opacity:0.18;fill:#004940;" d="M472.27,233.609c-0.09,0.117-0.18,0.234-0.279,0.35
								c-4.806-6.881-11.238-12.612-18.621-16.6c0.449-0.458,1.015-0.934,1.707-1.374c1.069-0.692,2.452-0.674,3.548-0.027
								c2.758,1.617,8.381,5.632,13.699,13.726C473.106,230.879,473.115,232.451,472.27,233.609z"/>
						</g>
						<g>
							<path style="fill:#A15F49;" d="M449.759,242.35c-1.006,1.114-2.865,3.153-5.273,5.83
								c-7.86,8.686-21.667,23.948-31.574,34.808c-2.093,2.309-5.767,2.398-7.869,0.117c-0.036-0.036-0.063-0.072-0.099-0.108
								c-0.081-0.099-0.171-0.207-0.251-0.296c-1.761-2.156-1.617-5.291,0.35-7.258c6.279-6.252,21.541-21.388,33.587-32.904
								c2.066-1.958,4.024-3.827,5.83-5.515c0.557-0.521,1.392-0.566,2.012-0.117c0.593,0.44,1.383,1.087,2.21,1.994
								c0.395,0.422,0.79,0.889,1.177,1.428C450.307,240.939,450.271,241.784,449.759,242.35z"/>
							<path style="fill:#FFFFFF;" d="M449.76,242.35c-1.004,1.111-2.862,3.15-5.276,5.831c-2.061-2.2-4.251-4.229-5.853-5.639
								c2.061-1.965,4.026-3.834,5.831-5.521c0.555-0.523,1.388-0.566,2.008-0.117c0.876,0.641,2.147,1.73,3.385,3.428
								C450.305,240.94,450.273,241.784,449.76,242.35z"/>
							<path style="opacity:0.19;fill:#512214;" d="M449.759,242.35c-1.006,1.114-2.865,3.153-5.273,5.83
								c-7.86,8.686-21.667,23.948-31.574,34.808c-2.093,2.309-5.767,2.398-7.869,0.117c0.297-0.054,0.593-0.126,0.889-0.216
								c1.662-0.53,3-1.779,4.267-2.982c3.306-3.126,6.602-6.243,9.908-9.369c2.452-2.326,4.923-4.671,7.016-7.321
								c1.895-2.407,3.467-5.048,5.309-7.483c2.452-3.261,5.363-6.135,8.255-9.001c2.659-2.614,5.354-5.201,7.995-7.833
								c0.395,0.422,0.79,0.889,1.177,1.428C450.307,240.939,450.271,241.784,449.759,242.35z"/>
						</g>
					</g>
					<g>
						<g>
							<path style="fill:#CB865C;" d="M434.965,297.558c-0.027,0.135-0.054,0.278-0.072,0.413c-0.755,4.824,0,10.106,0,10.106
								s-13.348,3.27-24.236,0c0,0-0.081-2.542-0.126-6.028c-0.027-3.449-0.027-7.824,0.126-11.543
								c0.314-7.456-0.62-14.92-0.781-16.322c-0.153-1.401-2.479-1.078-2.479-1.078s-1.392-2.318,1.249-4.824
								c2.632-2.497,5.075-1.446,5.075-1.446s-1.356-2.758,1.293-5.246c2.641-2.488,5.363-1.32,5.363-1.32s-1.015-3.342,1.788-5.524
								c2.704-2.102,4.536-1.15,4.644-1.096c-0.054-0.162-0.557-1.761,1.267-3.566c1.913-1.904,5.399-1.249,6.818,4.977
								c1.419,6.216,3.692,21.729,4.186,28.431C439.564,290.012,435.881,292.986,434.965,297.558z"/>
							<path style="opacity:0.09;fill:#49170B;" d="M434.893,297.971c-0.755,4.824,0,10.106,0,10.106s-13.348,3.27-24.236,0
								c0,0-0.081-2.542-0.126-6.028c1.033-0.162,2.03-0.332,2.964-0.449c7.231-0.889,14.408-2.237,21.469-4.042
								C434.938,297.693,434.911,297.836,434.893,297.971z"/>
							<g style="opacity:0.42;">
								<g>
									<path style="fill:#4C250B;" d="M413.72,266.837c0.718,0.142,1.297,0.689,1.765,1.241c0.474,0.572,0.812,1.225,1.11,1.893
										c0.573,1.346,0.822,2.774,1,4.189c0.254,2.841,0.033,5.684-0.719,8.416c-0.186-1.413-0.228-2.8-0.319-4.18
										c-0.081-1.378-0.164-2.745-0.302-4.098c-0.144-1.348-0.322-2.691-0.651-3.987c-0.191-0.634-0.369-1.285-0.671-1.876
										C414.646,267.839,414.297,267.247,413.72,266.837z"/>
								</g>
								<g>
									<path style="fill:#4C250B;" d="M420.378,260.275c0.807,0.158,1.343,0.891,1.797,1.522c0.417,0.678,0.783,1.396,1.042,2.139
										c0.564,1.479,0.888,3.017,1.12,4.553c0.218,1.541,0.343,3.088,0.339,4.636c0.026,1.547-0.081,3.094-0.299,4.635
										c-0.343-1.525-0.528-3.046-0.75-4.559c-0.105-0.757-0.19-1.513-0.309-2.264c-0.086-0.756-0.192-1.505-0.313-2.252
										c-0.2-1.5-0.456-2.985-0.789-4.441c-0.162-0.733-0.371-1.444-0.625-2.144C421.309,261.428,421.028,260.697,420.378,260.275
										z"/>
								</g>
								<g>
									<path style="fill:#4C250B;" d="M426.817,253.66c0.479,0.171,0.835,0.575,1.154,0.961c0.32,0.397,0.569,0.837,0.824,1.277
										c0.452,0.899,0.849,1.832,1.138,2.788c0.626,1.905,0.999,3.867,1.281,5.83c0.265,1.967,0.434,3.941,0.47,5.918
										c0.066,1.975-0.007,3.954-0.191,5.928c-0.376-1.953-0.596-3.904-0.857-5.848c-0.123-0.973-0.233-1.944-0.372-2.911
										c-0.106-0.972-0.239-1.937-0.383-2.9c-0.25-1.932-0.559-3.851-0.958-5.743c-0.194-0.949-0.438-1.881-0.73-2.8
										C427.863,255.27,427.566,254.303,426.817,253.66z"/>
								</g>
							</g>
						</g>
						<g>
							<path style="fill:#63B7A7;" d="M496.793,364.264c-13.887,9.809-26.661,15.846-38.141,16.726
								c-24.011,1.859-42.408-18.855-53.708-74.979c0,0,14.983-1.761,26.544-1.931c2.632-0.045,5.084,0,7.141,0.162
								c0,0,0.521,11.776,3.755,21.774c3.243,10.007,9.019,14.121,11.57,20.598c0,0,11.417-5.929,22.448-17.481
								c2.884-3.009,5.74-6.405,8.354-10.177c5.785-8.345,9.971-16.394,13.932-22.376c4.689-7.087,9.082-11.255,15.468-9.567
								C525.942,290.12,539.713,333.956,496.793,364.264z"/>
							<path style="opacity:0.18;fill:#004940;" d="M496.793,364.264c-13.887,9.809-26.661,15.846-38.141,16.726
								c29.868-4.68,40.36-21.765,51.058-51.858c10.797-30.353-3.018-37.449-11.022-32.554c4.689-7.087,9.082-11.255,15.468-9.567
								C525.942,290.12,539.713,333.956,496.793,364.264z"/>
							<path style="opacity:0.18;fill:#004940;" d="M476.402,329.132c-3.8,13.519-19.035,25.745-19.035,25.745
								s-11.947-4.096-16.609-15.28c-4.671-11.175-9.27-35.518-9.27-35.518c2.632-0.045,5.084,0,7.141,0.162
								c0,0,0.521,11.776,3.755,21.774c3.243,10.007,9.019,14.121,11.57,20.598C453.954,346.613,465.371,340.684,476.402,329.132z"
								/>
							<g style="opacity:0.56;">
								<path style="fill:#1E6658;" d="M453.956,346.611c1.148,1.485,1.992,3.146,2.696,4.863c0.333,0.867,0.646,1.744,0.858,2.655
									c0.217,0.906,0.375,1.839,0.353,2.78l-2.044-5.102C455.153,350.105,454.47,348.411,453.956,346.611z"/>
							</g>
						</g>
					</g>
				</g>
			</g>
		</g>
	</g>
	<g>
		<ellipse style="fill:#DCECFF;" cx="108.295" cy="265.01" rx="85.165" ry="125.722"/>
		<g>
			<defs>
				<path id="SVGID_00000070080800864295718910000015279294629861744530_" d="M193.46,264.713
					c0,69.434-38.13,125.722-85.165,125.722c-47.035,0-85.165-56.288-85.165-125.722s38.13-125.722,85.165-125.722
					c21.233,0,49.545,4.596,64.46,23.569C190.879,185.615,193.46,226.623,193.46,264.713z"/>
			</defs>
			<clipPath id="SVGID_00000119823388128207538860000008427403067285361818_">
				<use xlink:href="#SVGID_00000070080800864295718910000015279294629861744530_"  style="overflow:visible;"/>
			</clipPath>
			<g style="clip-path:url(#SVGID_00000119823388128207538860000008427403067285361818_);">
				<g>
					<path style="fill:#A6593B;" d="M187.756,231.551c-1.68,21.99-28.835,22.493-28.835,22.493s0.099,6.387,7.159,9.243
						c0,0-7.15,1.985-12.89-6.369c0.135,0.548,3.189,13.034-9.468,18.127c-12.935,5.21-20.247-3.018-20.247-3.018
						s-8.821,12.262-25.628,10.079c-2.928-0.377-5.506-1.078-7.761-1.994c-10.663-4.258-14.148-12.962-14.148-12.962
						s-6.549,9.917-16.439,8.399c0,0,9.45-2.345,10.285-11.929c0,0-19.663,8.237-28.233-14.283
						c-8.57-22.52,5.713-33.712,10.249-35.338c0,0-7.555-0.18-12.1,5.56c0,0,1.689-10.384,12.944-12.738
						c0,0-11.929-9.746-4.878-25.538c7.061-15.801,26.221-8.74,26.221-8.74s-4.752-12.441,4.761-22.349
						c0,0-2.183,10.923,2.488,15.621c0,0,3.836-15.792,24.846-17.139c3.863-0.243,7.249,0.009,10.213,0.602
						c13.151,2.605,17.849,11.669,17.849,11.669s6.387-4.033,7.231-13.106c0,0,3.189,8.74-1.177,15.289
						c0,0,15.289-9.073,27.056,1.68c11.758,10.752,2.857,34.287,2.857,34.287s6.045,1.877,12.432-2.336c0,0-2.183,5.533-9.414,6.791
						C173.132,203.552,189.436,209.57,187.756,231.551z"/>
					<path style="opacity:0.19;fill:#512214;" d="M72.597,184.203c-8.022-0.889-16.142,5.578-17.067,13.6
						c-0.925,8.031,5.507,16.169,13.528,17.13c-7.186,7.159-6.072,20.75,2.174,26.643c5.111,3.656,11.956,4.411,16.807,8.408
						c4.725,3.908,6.755,10.438,6.315,16.555c-0.341,4.77-2.012,9.324-4.267,13.573c-10.663-4.258-14.148-12.962-14.148-12.962
						s-6.549,9.917-16.439,8.399c0,0,9.45-2.345,10.285-11.929c0,0-19.663,8.237-28.233-14.283
						c-8.57-22.52,5.713-33.712,10.249-35.338c0,0-7.555-0.18-12.1,5.56c0,0,1.689-10.384,12.944-12.738
						c0,0-11.929-9.746-4.878-25.538c7.061-15.801,26.221-8.74,26.221-8.74s-4.752-12.441,4.761-22.349
						c0,0-2.183,10.923,2.488,15.621c0,0,3.836-15.792,24.846-17.139c3.863-0.243,7.249,0.009,10.213,0.602
						c-4.599,0.961-9.108,2.434-13.402,4.222c-8.085,3.351-16.51,9.657-16.465,18.406c-3.476,0.575-7.069,1.231-9.971,3.225
						C73.549,177.124,71.528,180.852,72.597,184.203z"/>
				</g>
				<g>
					<path style="fill:#FBB38D;" d="M153.208,385.822c-4.932,2.066-10.052,3.773-15.28,5.138c-1.024,0.279-2.057,0.539-3.09,0.782
						c-2.021,0.485-4.051,0.916-6.09,1.302c-21.936,4.177-44.618,3.036-61.335-1.338c-1.68-0.44-3.306-0.907-4.86-1.41
						c-9.315-3.018-16.223-7.123-19.259-11.884c-10.492-16.448-10.86-56.852,0-73.587c10.86-16.735,28.008-9.01,30.973-18.756
						c2.973-9.755,3.827-38.087,3.827-38.087c17.552,12.288,41.77,10.097,41.77,10.097c-0.287,2.515-0.494,4.842-0.62,7.007
						c-0.719,13.241,1.958,20.229,11.947,24.442c11.624,4.905,24.451,8.947,31.404,29.652
						C169.557,339.875,153.208,385.822,153.208,385.822z"/>
					<path style="opacity:0.09;fill:#49170B;" d="M145.241,318.037c-0.728,24.442-3.18,48.83-7.312,72.922
						c-1.024,0.279-2.057,0.539-3.09,0.782c-2.021,0.485-4.051,0.916-6.09,1.302c0.422-2.533,0.871-5.057,1.32-7.581
						c4.303-24.119,8.66-48.121,13.268-72.123C145.052,313.95,145.303,316.223,145.241,318.037z"/>
					<path style="opacity:0.09;fill:#49170B;" d="M62.322,310.294c0.446-0.462,1.12,0.272,1.324,0.882
						c3.176,9.507,4.642,19.583,4.305,29.6c-0.028,0.847-0.087,1.746-0.579,2.436c-2.98,4.174-4.559-12.122-4.717-13.849
						C62.353,326.066,60.006,312.694,62.322,310.294z"/>
					<path style="opacity:0.09;fill:#49170B;" d="M119.864,258.077c-0.287,2.515-0.494,4.842-0.62,7.007
						c-2.542,0.763-5.156,1.267-7.86,1.662c-4.069,0.593-8.165,0.934-12.253,1.365c-2.713,0.279-10.555-0.216-12.432,2.021
						c-0.521,0.62-0.593,1.491-0.602,2.3c-0.054,6.117,2.102,13.025-1.68,17.84c-3.315,4.24-9.459,4.491-14.678,5.821
						c-12.405,3.144-21.774,14.202-25.421,26.472s-2.273,25.538,1.123,37.88c2.74,9.926,6.917,19.753,14.157,27.083
						c0.943,0.961,1.94,1.868,2.955,2.767c-9.315-3.018-16.223-7.123-19.259-11.884c-10.492-16.448-10.86-56.852,0-73.587
						c10.86-16.735,28.008-9.01,30.973-18.756c2.973-9.755,3.827-38.087,3.827-38.087
						C95.646,260.269,119.864,258.077,119.864,258.077z"/>
					<path style="fill:#6599FF;" d="M142.312,327.326c0,0-0.557,18.783-3.404,34.629c-3.261,18.073-4.024,29.751-4.024,29.751
						l-0.045,0.036c-16.978,4.051-34.79,4.734-50.232,3.045c-6.18-0.665-11.974-1.716-17.193-3.081c0,0,1.096-21.101-0.782-33.506
						c-1.886-12.405-2.192-30.874-2.192-30.874s9.18-4.958,18.406-5.515c9.207-0.539,14.741,2.596,19.071,2.758
						c0.377,0.018,0.808-0.009,1.302-0.072c5.156-0.602,16.25-4.68,25.044-2.749C137.893,323.867,142.312,327.326,142.312,327.326z"
						/>
					<path style="opacity:0.18;fill:#001B47;" d="M103.219,324.496c0,0.027-0.009,0.054-0.018,0.081
						c-1.285,5.039-0.548,10.591-1.177,15.756c-0.782,6.351-2.21,12.603-3.647,18.837c-1.186,5.183-2.38,10.375-3.575,15.558
						c-0.943,4.096-1.913,8.273-4.06,11.884c-1.743,2.928-4.186,5.381-6.135,8.174c-6.18-0.665-11.974-1.716-17.193-3.081
						c0,0,1.096-21.101-0.782-33.506c-1.886-12.405-2.192-30.874-2.192-30.874s9.18-4.958,18.406-5.515
						c9.207-0.539,14.741,2.596,19.071,2.758C102.294,324.586,102.725,324.559,103.219,324.496z"/>
					<g style="opacity:0.61;">
						
							<path style="fill:none;stroke:#4C250B;stroke-width:1.3474;stroke-linecap:round;stroke-linejoin:round;stroke-miterlimit:10;" d="
							M107.14,301.646c0,0,6.083,0.866,12.72-1.731c6.636-2.597,10.387-1.443,12.119,0"/>
						
							<path style="fill:none;stroke:#4C250B;stroke-width:1.3474;stroke-linecap:round;stroke-linejoin:round;stroke-miterlimit:10;" d="
							M89.274,301.646c0,0-6.083,0.866-12.72-1.731c-6.637-2.597-10.388-1.443-12.119,0"/>
					</g>
				</g>
				<g>
					<g>
						<g>
							<path style="fill:#FBB38D;" d="M68.624,208.277c0,0-7.631-4.769-12.4,1.749c-4.769,6.518,1.272,28.139,15.739,23.847
								C71.962,233.872,67.829,219.405,68.624,208.277z"/>
							<path style="opacity:0.09;fill:#49170B;" d="M68.624,208.277c0,0-7.631-4.769-12.4,1.749
								c-4.769,6.518,1.272,28.139,15.739,23.847C71.962,233.872,67.829,219.405,68.624,208.277z"/>
							<path style="opacity:0.69;fill:#E35353;" d="M61.311,216.226c2.673-0.891,6.359,8.903,2.703,10.652
								C60.357,228.626,57.495,217.497,61.311,216.226z"/>
						</g>
						<g>
							<path style="fill:#FBB38D;" d="M156.222,208.794c0,0,6.836-3.525,10.334,2.291c3.498,5.817,1.908,22.51-13.354,22.669
								C153.201,233.753,156.54,224.374,156.222,208.794z"/>
							<path style="opacity:0.69;fill:#E35353;" d="M160.655,215.471c3.506,0.41,1.767,10.781-1.253,10.637
								S157.934,215.153,160.655,215.471z"/>
						</g>
						<g>
							<path style="fill:#FBB38D;" d="M157.619,222.64c-0.341,3.755-1.033,7.806-2.318,11.821
								c-2.219,6.926-6.171,13.735-13.025,18.684c-0.377,0.27-0.764,0.539-1.159,0.799c-22.412,14.786-50.753,7.474-61.784-1.275
								c-4.563-3.611-7.725-9.684-9.755-16.492c-0.593-1.994-1.087-4.042-1.491-6.117c-1.572-7.995-1.788-16.322-1.051-22.538
								c0,0,13.663-10.806,26.535-29.553c-0.126,0.377-2.165,6.503-5.551,11.426c-3.494,5.093-5.246,7.95-2.228,7.474
								c3.018-0.476,18.262-8.417,28.287-21.442c-0.207,0.611-5.273,15.54,0.171,22.08c5.569,6.674,16.69-1.904,16.852-20.193
								c0,0,2.066,5.246,5.569,8.749c3.494,3.494,6.198,4.294,5.875,2.38c-0.314-1.904-1.266-7.95-0.476-10.016
								c0,0,0.036,0.018,0.108,0.063c1.195,0.71,12.432,7.842,14.839,26.805C157.017,205.294,158.499,212.984,157.619,222.64z"/>
							<path style="opacity:0.09;fill:#49170B;" d="M141.09,253.514c0.395-0.126,0.79-0.251,1.186-0.368
								c-0.377,0.27-0.764,0.539-1.159,0.799c-22.412,14.786-50.753,7.474-61.784-1.275c-11.031-8.74-13.887-31.79-12.297-45.148
								c0,0,13.663-10.806,26.535-29.553c-0.126,0.377-2.165,6.503-5.551,11.426c-3.494,5.093-5.246,7.95-2.228,7.474
								c3.018-0.476,18.262-8.417,28.287-21.442c-0.207,0.611-5.273,15.54,0.171,22.08c5.569,6.674,16.69-1.904,16.852-20.193
								c0,0,2.066,5.246,5.569,8.749c3.494,3.494,6.198,4.294,5.875,2.38c-0.314-1.904-1.266-7.95-0.476-10.016
								c0,0,0.036,0.018,0.108,0.063c1.204,5.596,2.686,10.878,2.991,16.708c-4.671-3.225-8.857-7.159-12.351-11.642
								c-1.159,8.651-4.087,18.523-12.217,21.694c-3.126,1.222-7.204,0.961-9.18-1.752c-0.835-1.141-1.186-2.569-1.437-3.961
								c-1.042-5.812-0.638-11.866,1.168-17.48c-5.533,9.854-15.747,16.942-26.912,18.675c-5.749,5.893-5.48,15.432-3.108,23.31
								c5.426,18.047,21.909,33.56,40.755,33.407C128.443,257.395,134.848,255.535,141.09,253.514z"/>
						</g>
					</g>
					<g>
						
							<path style="opacity:0.61;fill:none;stroke:#4C250B;stroke-width:1.3474;stroke-linecap:round;stroke-linejoin:round;stroke-miterlimit:10;" d="
							M125.38,199.096c0,0,0,13.009-1.908,27.013c0,0,6.041-4.915,7.472-4.597c1.431,0.318-3.736,10.811-3.736,10.811"/>
						<g style="opacity:0.69;">
							<g>
								<g>
									<path style="fill:none;stroke:#4C250B;stroke-width:1.3474;stroke-linecap:round;stroke-miterlimit:10;" d="
										M81.024,213.086c0,0,5.405,10.493,16.852,8.744c11.447-1.749,13.195-8.744,13.195-8.744"/>
									
										<line style="fill:none;stroke:#4C250B;stroke-width:1.3474;stroke-linecap:round;stroke-miterlimit:10;" x1="81.569" y1="213.997" x2="75.937" y2="216.743"/>
									
										<line style="fill:none;stroke:#4C250B;stroke-width:1.3474;stroke-linecap:round;stroke-miterlimit:10;" x1="83.73" y1="216.743" x2="78.753" y2="220.786"/>
									
										<line style="fill:none;stroke:#4C250B;stroke-width:1.3474;stroke-linecap:round;stroke-miterlimit:10;" x1="87.092" y1="219.563" x2="83.73" y2="225.004"/>
								</g>
								<g>
									<path style="fill:none;stroke:#4C250B;stroke-width:1.3474;stroke-linecap:round;stroke-miterlimit:10;" d="
										M129.99,211.085c0,0,2.703,8.242,12.877,7.824c10.175-0.418,11.765-9.003,11.765-9.003"/>
									
										<line style="fill:none;stroke:#4C250B;stroke-width:1.3474;stroke-linecap:round;stroke-miterlimit:10;" x1="154.286" y1="211.085" x2="158.924" y2="213.086"/>
									
										<line style="fill:none;stroke:#4C250B;stroke-width:1.3474;stroke-linecap:round;stroke-miterlimit:10;" x1="153.201" y1="213.318" x2="157.752" y2="215.709"/>
									
										<line style="fill:none;stroke:#4C250B;stroke-width:1.3474;stroke-linecap:round;stroke-miterlimit:10;" x1="151.592" y1="215.37" x2="155.476" y2="218.764"/>
								</g>
							</g>
						</g>
						<g style="opacity:0.68;">
							<path style="fill:none;stroke:#49170B;stroke-width:1.3474;stroke-linecap:round;stroke-miterlimit:10;" d="M104.819,234.586
								c0,0,1.499,2.498,4.097,2.098s5.496-1.112,7.594,0.043c2.098,1.156,3.397,0.743,5.096,0c1.699-0.743,4.778,0.656,8.384,0.256
								c3.606-0.4,4.905-2.398,4.905-2.398"/>
							<path style="fill:none;stroke:#49170B;stroke-width:1.3474;stroke-linecap:round;stroke-miterlimit:10;" d="M112.263,239.682
								c0,0,0.75,2.798,6.346,2.898c5.596,0.1,7.094-2.898,7.094-2.898"/>
						</g>
						<g style="opacity:0.43;">
							<g>
								<path style="fill:#E35353;" d="M157.619,222.64c-0.341,3.755-1.033,7.806-2.318,11.821c-0.683,0.081-1.392,0.126-2.12,0.126
									c-5.74,0-10.393-2.812-10.393-6.279c0-3.467,4.653-6.279,10.393-6.279C154.762,222.029,156.271,222.245,157.619,222.64z"/>
								<ellipse style="fill:#E35353;" cx="77.775" cy="232.323" rx="10.392" ry="6.28"/>
							</g>
						</g>
						<g>
							<g>
								<path style="fill:#A6593B;" d="M134.895,198.566c-0.103,1.792,3.657,0.71,9.92,0.969c6.263,0.258,8.481,1.549,9.571,1.872
									c1.09,0.323,0.308-2.324-4.793-3.551C144.493,196.629,135.048,195.919,134.895,198.566z"/>
								<path style="fill:#A6593B;" d="M106.08,199.926c0.144,2.264-5.12,0.897-13.888,1.223
									c-8.768,0.326-11.873,1.957-13.399,2.365c-1.526,0.408-0.431-2.936,6.71-4.485
									C92.644,197.479,105.867,196.582,106.08,199.926z"/>
							</g>
						</g>
					</g>
				</g>
				<g>
					<g>
						<g>
							<g>
								<g>
									<path style="fill:#FFFFFF;" d="M88.159,254.056c-0.427,0-0.837-0.238-1.038-0.648c-1.176-2.406-2.672-4.793-3.202-5.109
										c-0.106-0.035-15.686-6.545-16.894-9.175c-0.223-0.485-0.156-0.892-0.061-1.148c0.712-1.909,3.68-3.269,4.268-3.522
										c0.584-0.254,1.263,0.018,1.515,0.603c0.252,0.585-0.017,1.263-0.601,1.516c-0.884,0.383-2.212,1.158-2.782,1.832
										c2.111,1.887,13.572,7.077,15.398,7.748c1.468,0.539,3.407,4.142,4.433,6.241c0.279,0.573,0.043,1.264-0.53,1.544
										C88.501,254.019,88.329,254.056,88.159,254.056z"/>
								</g>
								<g>
									<path style="fill:#FFFFFF;" d="M90.419,253.166c-0.485,0.001-0.936-0.306-1.096-0.792c-0.734-2.218-1.864-6.15-1.194-7.561
										c0.837-1.755,5.405-13.472,5.596-16.303c-0.861-0.079-2.34,0.275-3.268,0.632c-0.597,0.228-1.263-0.068-1.492-0.662
										c-0.229-0.595,0.068-1.263,0.663-1.492c0.598-0.229,3.672-1.332,5.514-0.465c0.247,0.116,0.579,0.361,0.76,0.864
										c0.975,2.732-5.618,18.271-5.689,18.418c-0.139,0.547,0.46,3.301,1.301,5.844c0.201,0.605-0.129,1.258-0.734,1.458
										C90.661,253.147,90.538,253.166,90.419,253.166z"/>
								</g>
							</g>
							<path style="fill:#3BA874;" d="M91.937,230.141c-6.459,4.878-15.037,7.222-18.289,7.977
								c-0.925,0.216-1.931-0.126-2.443-0.934c-0.521-0.808-0.781-1.716-0.925-2.443c-0.09-0.485-0.018-0.979,0.18-1.41
								c0.144-0.314,0.359-0.602,0.647-0.826c6.414-5.039,14.615-7.573,17.876-8.435c0.952-0.252,1.949,0.126,2.515,0.925
								c0.638,0.898,1.033,1.787,1.276,2.515c0.018,0.045,0.027,0.09,0.036,0.135C93.068,228.578,92.718,229.557,91.937,230.141z"/>
							<path style="opacity:0.18;fill:#004940;" d="M91.937,230.141c-6.459,4.878-15.037,7.222-18.289,7.977
								c-0.925,0.216-1.931-0.126-2.443-0.934c-0.521-0.808-0.781-1.716-0.925-2.443c-0.09-0.485-0.018-0.979,0.18-1.41
								c2.03,3.36,7.24,2.102,10.618,0.242c3.836-2.12,7.752-4.096,11.732-5.929C93.068,228.578,92.718,229.557,91.937,230.141z"/>
						</g>
						<g>
							<path style="fill:#A15F49;" d="M107.001,291.628c-0.485,0.521-1.096,0.952-1.814,1.231c-0.045,0.027-0.081,0.036-0.126,0.063
								c-2.515,0.97-5.354-0.251-6.342-2.776c-2.488-6.306-7.204-18.612-10.734-29.275c-0.97-2.911-1.85-5.704-2.578-8.219
								c0,0,0.773-0.485,2.129-1.105c1.141-0.53,2.713-1.15,4.599-1.653c0,0,1.401,3.135,3.44,7.779
								c3.485,7.95,8.866,20.301,12.351,28.799C108.672,288.286,108.249,290.28,107.001,291.628z"/>
							<path style="fill:#FFFFFF;" d="M95.576,257.672c-2.655,1.327-5.379,2.412-7.595,3.197c-0.97-2.909-1.847-5.702-2.574-8.218
								c0,0,2.62-1.65,6.729-2.758C92.137,249.893,93.533,253.032,95.576,257.672z"/>
							<path style="opacity:0.19;fill:#512214;" d="M107.001,291.628c-0.485,0.521-1.096,0.952-1.814,1.231
								c-0.045,0.027-0.081,0.036-0.126,0.063c-2.515,0.97-5.354-0.251-6.342-2.776c-2.488-6.306-7.204-18.612-10.734-29.275
								c-0.97-2.911-1.85-5.704-2.578-8.219c0,0,0.773-0.485,2.129-1.105c0.467,3.575,2.362,7.492,3.485,10.743
								c2.731,7.932,5.974,15.693,9.71,23.203C102.087,288.215,104.153,291.278,107.001,291.628z"/>
						</g>
					</g>
					<g>
						<path style="fill:#FBB38D;" d="M106.938,280.723c-3.153,0.449-10.474,0.755-10.887,1.105
							c-0.422,0.341-3.063,1.581-4.087,3.818c-1.024,2.246,4.653,4.339,7.195,10.312c2.533,5.974,0.144,48.094-3.889,65.871
							c-4.033,17.768-9.109,25.242-21.056,29.419c-3.099,1.087-6.288,1.338-9.423,0.961c-8.956-1.069-17.4-7.276-21.496-13.807
							c0,0,3.252-1.249,7.168-4.204c3.863-2.901,8.381-7.492,11.049-14.166c0.952-2.39,2.048-5.093,3.18-7.986
							c5.264-13.366,11.57-30.685,10.716-38.913c-0.476-4.482-2.282-11.022-4.132-17.4c-2.282-7.869-4.644-15.504-4.653-18.747
							c-0.009-4.878,3.261-5.83,4.455-10.456c1.195-4.635-0.907-13.86-1.204-16.636c-0.252-2.398,0.296-4.231,1.859-3.872
							c0.251,0.045,0.53,0.162,0.835,0.341c2.201,1.285,3.369,11.309,3.369,16.043c0,0,4.518-6.827,5.084-10.959
							c0.575-4.141,3.584-5.902,4.384-2.839c0.808,3.045-0.88,12.028-5.327,17.418c0.449-0.494,4.213-4.59,9.818-7.617
							c5.974-3.234,10.151-3.234,10.752-1.437c0.593,1.788-5.021,2.668-8.112,5.435c-3,2.686-8.462,8.767-8.794,9.154
							c0.18-0.108,1.464-0.862,3.315-1.761c0.53-0.26,1.105-0.53,1.716-0.809c2.425-1.096,5.39-2.201,8.076-2.614
							c4.869-0.737,8.372-0.35,9.603,0.979c0.26,0.278,0.413,0.602,0.467,0.961c0.305,2.093-4.177,2.327-7.312,3.252
							c-3.144,0.934-8.129,2.129-12.495,5.408c0.512-0.072,9.423-1.473,11.741-1.186c2.389,0.296,5.111,1.042,8.084,1.195
							C109.911,277.139,110.091,280.274,106.938,280.723z"/>
						<path style="opacity:0.09;fill:#49170B;" d="M73.477,290.532c-2.228-5.075-4.698-10.627-3.189-15.953
							c0.647-2.264,1.967-4.285,2.677-6.531c2.102-6.629-1.222-13.285-1.383-19.933c-0.018-0.719,0.036-1.41,0.153-2.093
							c-1.563-0.359-2.111,1.473-1.859,3.872c0.296,2.776,2.398,12.001,1.204,16.636c-1.195,4.626-4.464,5.578-4.455,10.456
							c0.009,3.243,2.371,10.878,4.653,18.747c1.85,6.378,3.656,12.917,4.132,17.4c0.674,6.499-3.119,18.669-7.336,30.084
							l-0.701-0.004c-11.134,10.243-13.406,23.037-13.406,23.037c5.169-5.921,9.294-10.768,12.405-14.476
							c2.15-0.776,3.776-3.077,5.024-5.162c0.663-1.108,1.324-2.222,1.976-3.342c0.003-0.004,0.019-0.024,0.019-0.024l-0.005,0
							c2.726-4.683,5.241-9.5,6.544-14.734C83.089,315.819,78.75,302.506,73.477,290.532z"/>
						<path style="opacity:0.09;fill:#49170B;" d="M59.599,387.528c1.635,1.662,3.414,3.171,5.192,4.68
							c-8.956-1.069-17.4-7.276-21.496-13.807c0,0,3.252-1.249,7.168-4.204C52.817,379.102,55.781,383.666,59.599,387.528z"/>
						<path style="opacity:0.19;fill:#49170B;" d="M106.453,267.356c-2.434,0.269-4.878,0.494-7.321,0.755
							c-2.093,0.216-7.249-0.027-10.357,0.88c2.425-1.096,5.39-2.201,8.076-2.614C101.719,265.641,105.222,266.027,106.453,267.356z
							"/>
					</g>
				</g>
			</g>
		</g>
	</g>
	<g>
		<ellipse style="fill:#FFDCE9;" cx="288.555" cy="265.01" rx="85.165" ry="125.722"/>
		<g>
			<defs>
				<ellipse id="SVGID_00000014605870454834428790000010942300008427002259_" cx="288.555" cy="264.713" rx="85.165" ry="125.722"/>
			</defs>
			<clipPath id="SVGID_00000106137171871640142580000010145946243463221646_">
				<use xlink:href="#SVGID_00000014605870454834428790000010942300008427002259_"  style="overflow:visible;"/>
			</clipPath>
			<g style="clip-path:url(#SVGID_00000106137171871640142580000010145946243463221646_);">
				<g>
					<path style="fill:#FBB38D;" d="M352.568,401.202c-5.542,1.688-11.16,3.085-16.767,4.201c-1.107,0.225-2.213,0.441-3.32,0.638
						c-5.345,0.975-10.681,1.707-15.97,2.223c-27.383,2.691-53.631-0.263-73.053-4.998c-2.71-0.656-5.27-1.341-7.699-2.063
						c-27.467-8.13-24.898-36.207-11.675-71.327c13.232-35.12,37.286-30.243,44.994-41.618c3.263-4.811,1.379-17.827,1.379-17.827
						c20.19,3.479,35.72-1.782,35.72-1.782s-0.413,3.132-0.084,8.074c0.225,3.507,0.835,7.934,2.223,12.782
						c3.339,11.694,28.377,12.116,39.659,35.851C359.245,349.099,352.568,401.202,352.568,401.202z"/>
					<path style="opacity:0.09;fill:#49170B;" d="M337.704,367.93c-0.244,12.547,0.225,25.132-1.904,37.474
						c-1.107,0.225-2.213,0.441-3.32,0.638c-5.345,0.975-10.681,1.707-15.97,2.223c-1.163-6.658-0.347-13.607,0.703-20.331
						c1.763-11.291,4.154-22.469,6.658-33.61c1.435-6.358,3.545-13.326,3.367-19.9c-0.131-4.445-3.648-9.331-0.572-13.542
						c2.851,1.163,4.501,4.501,5.523,7.268c1.641,4.492,2.335,9.265,3.02,14.001C336.438,350.703,337.873,359.274,337.704,367.93z"
						/>
					<path style="opacity:0.09;fill:#49170B;" d="M306.091,276.721c-7.887,2.194-16.514,1.829-24.598,2.532
						c-0.956,0.094-1.951,0.216-2.719,0.778c-1.594,1.172-1.463,3.517-1.735,5.477c-0.572,4.07-3.517,7.474-6.939,9.743
						c-3.423,2.269-7.343,3.639-11.103,5.308c-11.178,4.97-21.316,13.185-26.483,24.27c-2.616,5.627-3.882,11.76-5.898,17.621
						c-2.766,8.065-6.977,15.717-8.29,24.148c-1.435,9.275,0.572,15.698,5.758,23.538c2.26,3.423,5.627,8.721,11.675,11.066
						c-27.467-8.13-24.898-36.207-11.675-71.327c13.232-35.12,37.286-30.243,44.994-41.618c3.263-4.811,1.379-17.827,1.379-17.827
						c20.19,3.479,35.72-1.782,35.72-1.782S305.763,271.779,306.091,276.721z"/>
					<path style="fill:#D84A68;" d="M332.48,406.294c-29.577,4.961-59.099,3.151-81.596-1.032c-2.57-0.488-5.055-0.994-7.427-1.529
						c-9.743-39.068,3.301-78.314,3.301-78.314c2.457-0.431,4.867-0.816,7.249-1.163c44.376-6.471,74.928,1.163,74.928,1.163
						C340.283,362.406,332.63,405.516,332.48,406.294z"/>
					<path style="opacity:0.18;fill:#001B47;" d="M257.843,385.269c-0.15,2.607-0.347,5.27-1.35,7.69
						c-1.003,2.41-2.757,4.426-3.91,6.771c-0.853,1.754-1.35,3.62-1.697,5.533c-2.57-0.488-5.055-0.994-7.427-1.529
						c-9.743-39.068,3.301-78.314,3.301-78.314c2.457-0.431,4.867-0.816,7.249-1.163c0.16,4.689,1.538,9.537,2.119,14.048
						c0.947,7.324,1.576,14.685,1.885,22.056C258.359,368.661,258.302,376.97,257.843,385.269z"/>
				</g>
				<g>
					<g>
						<g>
							<path style="fill:#F8627B;" d="M263.413,157.745c0,0,15.634-25.659,47.512-11.017c32.212,14.796,25.315,51.321,25.315,51.321
								S287.411,183.655,263.413,157.745z"/>
							<path style="fill:#BA4762;" d="M303.241,168.718c0,0-3.066,2.354-8.074,5.767c-12.491,8.506-37.061,23.557-56.248,24.907
								c-1.079,0.075-2.138,0.103-3.17,0.094c0,0-0.431-1.847-0.675-4.801c-0.75-9.153,0.281-28.912,21.278-37.305
								c0.619-0.253,1.247-0.488,1.894-0.713C288.246,146.23,303.241,168.718,303.241,168.718z"/>
							<path style="fill:#D84A68;" d="M340.183,226.119c0,0,8.556-23.031-8.442-45.162c-16.999-22.131-55.574-21.232-70.367-1.799
								C246.582,198.589,340.183,226.119,340.183,226.119z"/>
							<path style="fill:#F8627B;" d="M336.241,225.941c0,0-51.812,13.232-88.385,3.817c-3.892-1.003-7.605-2.26-11.066-3.817
								c0,0-8.374-6.124-4.708-23.576c0.525-2.494,1.538-5.092,2.992-7.68c2.654-4.717,6.761-9.406,12.022-13.316
								c11.591-8.637,28.743-13.542,48.07-6.883c0.797,0.281,1.604,0.572,2.41,0.891
								C331.571,188.693,336.241,225.941,336.241,225.941z"/>
							<path style="opacity:0.18;fill:#001B47;" d="M256.352,157.38c-0.685,0.647-1.341,1.332-1.969,2.035
								c-5.327,5.945-8.646,14.142-7.287,21.953c0.056,0.356,0.131,0.722,0.216,1.079c-4.736,4.398-7.493,10.522-8.393,16.946
								c-0.46,3.329-0.431,6.752,0.094,10.053c1.154,7.371,4.464,14.217,8.843,20.312c-3.892-1.003-7.605-2.26-11.066-3.817
								c0,0-8.374-6.124-4.708-23.576c0.525-2.494,1.538-5.092,2.992-7.68C234.324,185.532,235.355,165.773,256.352,157.38z"/>
						</g>
						<g>
							<path style="fill:#FBB38D;" d="M333.395,224.485c0,0,7.61-3.236,11.081,3.278c3.471,6.515,0.437,19.34-11.997,20.804
								L333.395,224.485z"/>
							<path style="opacity:0.69;fill:#E35353;" d="M338.334,230.479c2.937,0.328,2.222,9.535-1.068,9.54
								C333.976,240.023,335.397,230.151,338.334,230.479z"/>
							<path style="fill:#FBB38D;" d="M242.541,224.485c0,0-7.61-3.236-11.081,3.278c-3.471,6.515-0.437,19.34,11.997,20.804
								L242.541,224.485z"/>
							<path style="opacity:0.09;fill:#49170B;" d="M242.541,224.485c0,0-7.61-3.236-11.081,3.278
								c-3.471,6.515-0.437,19.34,11.997,20.804L242.541,224.485z"/>
							<path style="opacity:0.69;fill:#E35353;" d="M237.601,230.479c-2.937,0.328-2.222,9.535,1.068,9.54
								C241.959,240.023,240.538,230.151,237.601,230.479z"/>
						</g>
						<g>
							<path style="fill:#FBB38D;" d="M276.908,192.781c-0.741,1.097-1.482,2.157-2.232,3.179
								C275.783,194.216,276.777,192.95,276.908,192.781z"/>
							<path style="fill:#FBB38D;" d="M308.061,274.021c-5.017,1.557-10.981,2.448-18.052,2.448
								c-58.611,0-47.47-51.981-47.47-51.981s15.004-4.858,32.109-28.48c-2.344,3.695-5.167,9.546-1.463,11.835
								c5.608,3.47,22.826-14.414,22.694-14.01c-0.131,0.394-5.87,10.006-0.403,12.679c5.477,2.673,18.699-12.819,18.699-12.819
								s-1.425,22.694,18.296,30.45c0.3,0.122,0.609,0.234,0.928,0.347C333.4,224.487,341.361,263.733,308.061,274.021z"/>
							<path style="opacity:0.09;fill:#49170B;" d="M276.908,192.781c-0.741,1.097-1.482,2.157-2.232,3.179
								C275.783,194.216,276.777,192.95,276.908,192.781z"/>
							<path style="opacity:0.09;fill:#49170B;" d="M332.471,224.141c-6.367,0.019-12.763-5.796-16.083-10.766
								c-1.275-1.904-6.03-10.231-4.276-12.529c-3.066,4.023-6.527,8.187-11.366,9.65c-4.839,1.463-11.225-1.275-11.61-6.321
								c-1.716,3.667-5.449,6.311-9.481,6.724c-1.697,0.169-3.46-0.019-5.092,0.488c-1.801,0.563-3.235,1.904-4.595,3.207
								c-5.964,5.72-12.294,12.144-13.176,20.359c-0.394,3.742,0.403,7.521,1.679,11.066c5.795,16.139,22.197,27.871,39.358,28.143
								c3.404,0.047,6.836-0.3,10.231-0.141c-5.017,1.557-10.981,2.448-18.052,2.448c-58.611,0-47.47-51.981-47.47-51.981
								s15.004-4.858,32.109-28.48c-2.344,3.695-5.167,9.546-1.463,11.835c5.608,3.47,22.826-14.414,22.694-14.01
								c-0.131,0.394-5.87,10.006-0.403,12.679c5.477,2.673,18.699-12.819,18.699-12.819S312.75,216.385,332.471,224.141z"/>
						</g>
					</g>
					<g>
						<g style="opacity:0.6;">
							<g>
								<path style="fill:none;stroke:#4C250B;stroke-width:1.4067;stroke-linecap:round;stroke-miterlimit:10;" d="
									M301.183,236.473c0,0,3.395-12.695,11.957-11.957c8.562,0.738,11.662,11.957,11.662,11.957"/>
								<path style="fill:none;stroke:#4C250B;stroke-width:1.4067;stroke-linecap:round;stroke-miterlimit:10;" d="
									M324.529,235.631c0,0,2.339-0.339,4.406-2.111"/>
								<path style="fill:none;stroke:#4C250B;stroke-width:1.4067;stroke-linecap:round;stroke-miterlimit:10;" d="M323.376,232.9
									c0,0,2.753-1.034,4.23-2.421"/>
								<path style="fill:none;stroke:#4C250B;stroke-width:1.4067;stroke-linecap:round;stroke-miterlimit:10;" d="
									M321.985,230.479c0,0,2.13-0.501,3.507-2.715"/>
							</g>
							<g>
								<path style="fill:none;stroke:#4C250B;stroke-width:1.4067;stroke-linecap:round;stroke-miterlimit:10;" d="
									M273.184,236.473c0,0-3.395-12.695-11.957-11.957c-8.562,0.738-11.662,11.957-11.662,11.957"/>
								<path style="fill:none;stroke:#4C250B;stroke-width:1.4067;stroke-linecap:round;stroke-miterlimit:10;" d="
									M249.837,235.631c0,0-2.339-0.339-4.406-2.111"/>
								<path style="fill:none;stroke:#4C250B;stroke-width:1.4067;stroke-linecap:round;stroke-miterlimit:10;" d="M250.99,232.9
									c0,0-2.753-1.034-4.23-2.421"/>
								<path style="fill:none;stroke:#4C250B;stroke-width:1.4067;stroke-linecap:round;stroke-miterlimit:10;" d="
									M252.382,230.479c0,0-2.13-0.501-3.507-2.715"/>
							</g>
						</g>
						
							<path style="opacity:0.61;fill:none;stroke:#4C250B;stroke-width:1.4067;stroke-linecap:round;stroke-linejoin:round;stroke-miterlimit:10;" d="
							M288.93,216.692c0,0-0.443,13.286,0,24.8c0,0,4.428-2.067,5.462-1.476c1.033,0.59-1.919,5.314-3.838,7.528"/>
						<path style="opacity:0.74;fill:none;stroke:#49170B;stroke-width:1.4067;stroke-linecap:round;stroke-miterlimit:10;" d="
							M276.088,251.087c0,0,12.105,5.167,25.095,0"/>
						<g style="opacity:0.46;">
							<path style="fill:#E35353;" d="M330.115,247.676c0,2.518-4.296,4.56-9.595,4.56c-5.299,0-9.595-2.042-9.595-4.56
								c0-2.518,4.296-4.56,9.595-4.56C325.82,243.116,330.115,245.157,330.115,247.676z"/>
							<path style="fill:#E35353;" d="M265.95,247.676c0,2.518-4.296,4.56-9.595,4.56c-5.299,0-9.595-2.042-9.595-4.56
								c0-2.518,4.296-4.56,9.595-4.56C261.655,243.116,265.95,245.157,265.95,247.676z"/>
						</g>
						<g>
							<g>
								<path style="fill:#8E4833;" d="M270.171,214.539c-1.02,1.554-9.399,0.458-12.073,1.146c-2.674,0.688-6.818,2.98-8.261,3.286
									c-1.443,0.306-0.153-1.362,1.537-2.279c1.69-0.917,4.814-2.917,6.648-3.452c1.834-0.535,9.169,0,11.08,0
									C271.012,213.24,270.432,214.142,270.171,214.539z"/>
								<path style="fill:#8E4833;" d="M304.862,214.539c1.02,1.554,9.399,0.458,12.073,1.146c2.674,0.688,6.818,2.98,8.261,3.286
									c1.443,0.306,0.153-1.362-1.537-2.279c-1.69-0.917-4.814-2.917-6.648-3.452c-1.834-0.535-9.169,0-11.08,0
									C304.022,213.24,304.602,214.142,304.862,214.539z"/>
							</g>
						</g>
					</g>
				</g>
				<g>
					<g>
						<g>
							<path style="fill:#3BA874;" d="M246.758,252.536c-1.604,0.994-3.142,1.782-4.567,2.41c-3.066,1.35-5.599,1.923-7.146,2.176
								c-1.397,0.225-2.776-0.591-3.207-1.941c-0.225-0.685-0.281-1.369-0.281-1.913c0.009-0.609,0.188-1.21,0.553-1.688
								c0.3-0.394,0.609-0.769,0.919-1.125c4.679-5.28,11.047-6.321,11.047-6.321L246.758,252.536z"/>
							<path style="opacity:0.18;fill:#004940;" d="M242.191,254.946c-3.066,1.35-5.599,1.923-7.146,2.176
								c-1.397,0.225-2.776-0.591-3.207-1.941c-0.225-0.685-0.281-1.369-0.281-1.913c0.009-0.609,0.188-1.21,0.553-1.688
								c0.3-0.394,0.609-0.769,0.919-1.125c0.422,3.432,3.451,5.223,7.362,4.764C240.991,255.153,241.591,255.049,242.191,254.946z"
								/>
							<path style="fill:#53E09A;" d="M244.077,244.137c1.757-0.562,4.559,7.269,2.683,8.4
								C244.884,253.667,242.058,244.783,244.077,244.137z"/>
							<g>
								<g>
									<g>
										<path style="fill:#6599FF;" d="M242.46,268.647c-0.404,0-0.761-0.29-0.833-0.701c-0.519-2.982,0.566-4.702,1.714-6.523
											c0.433-0.688,0.881-1.398,1.276-2.225c1.574-3.296,3.252-9.699,2.805-10.705c-0.03-0.031-0.075-0.049-0.139-0.055
											c-0.348-0.049-0.996,0.326-1.313,0.586c-0.361,0.294-0.893,0.244-1.191-0.116c-0.297-0.36-0.247-0.892,0.112-1.189
											c0.135-0.113,1.347-1.106,2.57-0.965c0.529,0.056,0.986,0.31,1.319,0.734c1.418,1.806-1.673,10.425-2.635,12.439
											c-0.437,0.916-0.934,1.703-1.372,2.398c-1.095,1.735-1.885,2.99-1.478,5.329c0.081,0.461-0.228,0.9-0.689,0.98
											C242.557,268.643,242.509,268.647,242.46,268.647z"/>
									</g>
									<g>
										<path style="fill:#6599FF;" d="M240.56,269.858c-0.428,0-0.796-0.325-0.841-0.76c-0.003-0.032-0.361-3.222-2.677-4.517
											c-2.626-1.466-6.869-5.113-7.283-7.266c-0.278-1.449,0.573-2.616,2.531-3.473c0.416-0.211,0.977-0.063,1.187,0.355
											c0.21,0.418,0.092,0.904-0.326,1.113l-0.182,0.084c-1.167,0.51-1.659,1.019-1.547,1.601
											c0.226,1.174,3.516,4.47,6.447,6.109c3.097,1.73,3.52,5.658,3.537,5.824c0.046,0.465-0.293,0.878-0.757,0.925
											C240.617,269.857,240.588,269.858,240.56,269.858z"/>
									</g>
								</g>
							</g>
						</g>
						<g>
							<path style="fill:#A15F49;" d="M254.805,316.155c-0.075,0.028-0.141,0.047-0.197,0.075c-0.206,0.075-0.413,0.122-0.619,0.16
								c-2.035,0.366-4.079-0.966-4.586-3.057c-1.997-8.065-6.874-27.936-9.2-39.33c-0.356-1.772-0.666-3.329-0.882-4.614
								c-0.113-0.685,0.234-1.341,0.844-1.669c0.3-0.15,0.647-0.31,1.06-0.46c0.441-0.15,0.947-0.281,1.51-0.375
								c0.75-0.141,1.491,0.338,1.725,1.079c0.3,0.985,0.788,2.532,1.407,4.539c2.419,7.802,6.921,22.657,11.394,38.777
								C257.815,313.295,256.755,315.423,254.805,316.155z"/>
							<path style="fill:#6599FF;" d="M245.871,272.504c-2.077,0.395-4.042,0.971-5.667,1.501c-0.361-1.772-0.666-3.33-0.881-4.617
								c-0.113-0.689,0.237-1.343,0.847-1.671c0.61-0.305,1.468-0.655,2.563-0.835c0.756-0.135,1.49,0.339,1.727,1.084
								C244.765,268.948,245.25,270.494,245.871,272.504z"/>
							<path style="opacity:0.18;fill:#001B47;" d="M253.989,316.389c-2.035,0.366-4.079-0.966-4.586-3.057
								c-1.997-8.065-6.874-27.936-9.2-39.33c-0.356-1.772-0.666-3.329-0.882-4.614c-0.113-0.685,0.234-1.341,0.844-1.669
								c0.3-0.15,0.647-0.31,1.06-0.46c-0.038,0.188-0.066,0.394-0.084,0.609c-0.131,1.275,0.178,2.551,0.497,3.798
								c2.935,11.582,5.87,23.172,8.806,34.754c0.638,2.532,1.285,5.073,2.326,7.465
								C253.135,314.739,253.557,315.564,253.989,316.389z"/>
						</g>
					</g>
					<path style="fill:#FBB38D;" d="M228.25,307.42c-1.041-8.54,5.538-18.933,7.502-22.148c1.964-3.215,4.881-9.466,5.655-12.681
						c0.774-3.215,5.116-0.826,4.464,3.874c-0.653,4.7-6.917,11.844-7.715,18.274c0,0,2.265-7.502,7.164-11.967
						c4.899-4.465,4.937-8.752,7.061-7.859c2.124,0.893,2.594,5.001-1.392,10.181c-3.985,5.18-6.258,9.466-7.533,13.396
						c0,0,3.024-4.723,8.376-6.202c5.352-1.479,6.96-1.122,10.711-1.657c3.751-0.536,3.036,3.929-1.965,5.894
						c-5.001,1.965-9.278,2.858-12.944,6.787c0,0,5.709-2.679,9.773-1.786c4.064,0.893,6.852-0.714,7.512,1.072
						c0.66,1.786-1.931,3.215-7.512,3.93c-5.581,0.714-7.843,4.644-7.843,4.644s3.907,8.216,2.817,15.539
						c0,0,7.84,54.577-1.984,67.08c-9.824,12.503-22.684,7.68-23.934-3.394c-1.25-11.074,7.859-54.539,7.502-58.755
						C233.608,327.425,229.143,314.743,228.25,307.42z"/>
					<path style="opacity:0.09;fill:#49170B;" d="M229.038,363.731c0,0-1.935,19.434,0,27.053
						C229.038,390.784,220.031,378.565,229.038,363.731z"/>
				</g>
			</g>
		</g>
	</g>
</g>
</svg>
