<?xml version="1.0" encoding="utf-8"?>
<!-- Generator: Adobe Illustrator 22.0.1, SVG Export Plug-In . SVG Version: 6.00 Build 0)  -->
<svg version="1.1" xmlns="http://www.w3.org/2000/svg" xmlns:xlink="http://www.w3.org/1999/xlink" x="0px" y="0px"
	 viewBox="0 0 512 512" style="enable-background:new 0 0 512 512;" xml:space="preserve">
<style type="text/css">
	.st0{fill:#A5CDBC;}
	.st1{fill:#453D80;}
	.st2{fill:#E9D178;}
	.st3{fill:#918BC6;}
	.st4{fill:#E2A2AB;}
	.st5{fill:#EECAC4;}
	.st6{fill:#7CB59C;}
	.st7{fill:#BDB9DC;}
	.st8{fill:#E2A66F;}
	.st9{fill:#DAAB5C;}
	.st10{fill:#74A0FB;}
	.st11{fill:#EDBB87;}
	.st12{fill:#EFCBC5;}
	.st13{fill:#CB9E56;}
	.st14{fill:#F8EF6C;}
	.st15{fill:#BBD9CC;}
	.st16{fill:#673528;}
	.st17{fill:#532B22;}
	.st18{fill:#7A3F2C;}
	.st19{fill:#B9865D;}
	.st20{fill:#A1ACA5;}
	.st21{fill:#B7C7BE;}
	.st22{fill:#D3E8DF;}
	.st23{fill:#AA583E;}
	.st24{fill:#944937;}
	.st25{fill:#E9A497;}
	.st26{fill:#C15E48;}
	.st27{fill:#D29289;}
	.st28{fill:#E4CAC8;}
	.st29{fill:#BFE6D5;}
	.st30{fill:#A2D6BD;}
	.st31{fill:#D5EBE2;}
	.st32{fill:#EBF3EF;}
	.st33{fill:#5F55AB;}
	.st34{fill:#2A284C;}
	.st35{fill:#D69C6C;}
	.st36{fill:#CE9567;}
	.st37{fill:#EAE7D6;}
	.st38{fill:#E1C978;}
	.st39{fill:#544C4A;}
	.st40{fill:#ACABB4;}
	.st41{fill:#BC8B63;}
	.st42{fill:#B9D7CA;}
	.st43{fill:#C9B26B;}
	.st44{fill:#817EB1;}
	.st45{fill:#3C3B4D;}
	.st46{fill:#2B2A36;}
	.st47{fill:#CC9567;}
	.st48{fill:#AF7C59;}
	.st49{fill:#A27855;}
	.st50{fill:#B4825B;}
	.st51{fill:#806045;}
	.st52{fill:#CB8694;}
	.st53{fill:#AE6E7E;}
	.st54{fill:#DDC3CB;}
	.st55{fill:#DEE8E3;}
	.st56{fill:#9B3A52;}
	.st57{fill:#C43C50;}
	.st58{fill:#538872;}
	.st59{fill:#67A78A;}
	.st60{fill:none;stroke:#E2A66F;stroke-width:6;stroke-linecap:round;stroke-miterlimit:10;}
	.st61{fill:none;stroke:#B9865D;stroke-width:6;stroke-linecap:round;stroke-miterlimit:10;}
	.st62{fill:#C4D6CD;}
	.st63{fill:#BCE9F2;}
	.st64{fill:#E2B9C1;}
	.st65{fill:#D19AA6;}
	.st66{fill:#D8ACB7;}
	.st67{fill:#C4929F;}
	.st68{fill:#CA6F63;}
	.st69{fill:#E07B67;}
	.st70{fill:#DF9589;}
	.st71{fill:#BE6761;}
	.st72{fill:#9B7380;}
	.st73{fill:#C48D99;}
	.st74{fill:#A97A86;}
	.st75{fill:#886672;}
	.st76{fill:#EEE8D6;}
	.st77{fill:#DCD7C8;}
	.st78{fill:#DB95A3;}
	.st79{fill:#E3CCD3;}
	.st80{fill:#CFBEC3;}
	.st81{fill:#EDE5E7;}
	.st82{fill:#39356B;}
	.st83{fill:#D8E8E1;}
	.st84{fill:none;stroke:#E2A66F;stroke-width:10;stroke-linecap:round;stroke-miterlimit:10;}
	.st85{fill:#C0A2A1;}
	.st86{fill:#ABAAD4;}
	.st87{fill:#514C96;}
	.st88{fill:#C1C1DF;}
	.st89{fill:#807CAE;}
	.st90{fill:#40715B;}
	.st91{fill:#DB9E6B;}
	.st92{fill:#E3C8B0;}
	.st93{fill:#653528;}
	.st94{fill:#D0C5C2;}
	.st95{fill:#EBE4E2;}
	.st96{fill:#F2F0DE;}
	.st97{fill:#668C7B;}
	.st98{fill:#65937D;}
	.st99{fill:#AD617E;}
	.st100{fill:#C97793;}
	.st101{fill:#E28DA3;}
	.st102{fill:#F9A2B3;}
	.st103{fill:#F2D7DC;}
	.st104{fill:#963346;}
	.st105{fill:#AA394E;}
	.st106{fill:#C8C8D5;}
	.st107{fill:#D5D4E8;}
	.st108{fill:#A2A1AF;}
	.st109{fill:#BABACB;}
	.st110{fill:#CCE0D7;}
	.st111{fill:#E0A0A9;}
	.st112{fill:#943346;}
	.st113{fill:#8F89C4;}
	.st114{fill:#BBB7DA;}
	.st115{fill:#C23C50;}
	.st116{fill:#A8394E;}
	.st117{fill:#EBB985;}
	.st118{fill:#DFA36F;}
	.st119{fill:#E1D3CF;}
	.st120{fill:#A59B98;}
	.st121{fill:#3E221C;}
	.st122{fill:none;stroke:#B7845D;stroke-width:8;stroke-linecap:round;stroke-miterlimit:10;}
	.st123{fill:none;stroke:#743A2F;stroke-width:7;stroke-linecap:round;stroke-miterlimit:10;}
	.st124{fill:#EEEBDA;}
	.st125{fill:#E5CD78;}
	.st126{fill:#69342A;}
	.st127{fill:#8C8482;}
	.st128{fill:#BA9D6F;}
	.st129{fill:#EFEFEF;}
	.st130{fill:none;stroke:#E2A66F;stroke-width:8;stroke-linecap:round;stroke-miterlimit:10;}
	.st131{fill:#6A9982;}
	.st132{fill:#638DCA;}
	.st133{fill:#6B96E1;}
	.st134{fill:#90B6F3;}
	.st135{fill:#6796EB;}
	.st136{fill:#C8A7A5;}
	.st137{fill:#817EAE;}
	.st138{fill:#DF9387;}
	.st139{fill:#B99151;}
	.st140{fill:#EFE8D0;}
	.st141{fill:#CC8D84;}
	.st142{fill:#304B78;}
	.st143{fill:#283F65;}
	.st144{fill:#365780;}
	.st145{fill:#CC94A0;}
	.st146{fill:#C0C6CC;}
	.st147{fill:#EBD5DA;}
	.st148{fill:#668ED4;}
	.st149{fill:#D4C3C7;}
	.st150{fill:#ACB0B4;}
	.st151{fill:#B6BDC3;}
	.st152{fill:#CE9668;}
	.st153{fill:#9C9FA0;}
	.st154{fill:#893248;}
	.st155{fill:#E7EBF0;}
	.st156{fill:#673628;}
	.st157{fill:#ECE9D8;}
	.st158{fill:#E3CB78;}
	.st159{fill:#6D9E86;}
	.st160{fill:#BE9573;}
	.st161{fill:#D1A37A;}
	.st162{fill:#D5C6B8;}
	.st163{fill:#E7D4C3;}
	.st164{fill:#B4A69A;}
	.st165{fill:#C79064;}
	.st166{fill:#BEC4C9;}
	.st167{fill:#AAADB2;}
	.st168{fill:#B4BBC1;}
	.st169{fill:#CC9468;}
	.st170{fill:#9A9D9E;}
	.st171{fill:#873248;}
	.st172{fill:#E5E9EE;}
	.st173{fill:#DBBBB8;}
	.st174{fill:#D3CAC3;}
	.st175{fill:#E4DAD1;}
	.st176{fill:#979492;}
	.st177{fill:#BAB5B0;}
	.st178{fill:#D1996C;}
	.st179{fill:#58504B;}
	.st180{fill:#E3DBDB;}
	.st181{fill:#855151;}
	.st182{fill:#BD8F9B;}
	.st183{fill:#CFC45A;}
	.st184{fill:#599178;}
	.st185{fill:#C3EDDE;}
	.st186{fill:#A2D4BF;}
	.st187{fill:#CA6F62;}
	.st188{fill:#EBDDE0;}
	.st189{fill:#D7CCCF;}
	.st190{fill:#CBC8C9;}
	.st191{fill:#A39EA0;}
	.st192{fill:#BAB2B4;}
	.st193{fill:#AA818B;}
	.st194{fill:#BF8D97;}
	.st195{fill:#C8939E;}
	.st196{fill:#E4C0C7;}
	.st197{fill:#A5BAD3;}
	.st198{fill:#B3CAEC;}
	.st199{fill:#6C95DC;}
	.st200{fill:#6E9AE6;}
	.st201{fill:#D4A67D;}
	.st202{fill:#D3D1C2;}
	.st203{fill:#827FB3;}
	.st204{fill:#646386;}
	.st205{fill:#6F6D97;}
	.st206{fill:#5A597A;}
	.st207{fill:#B6B4DA;}
	.st208{fill:#D0CEC0;}
	.st209{fill:#DAB9B6;}
	.st210{fill:#7E7AAB;}
	.st211{fill:#DBC5C5;}
	.st212{fill:#E0C18D;}
	.st213{fill:#7D9DC8;}
	.st214{fill:#9EBEEF;}
	.st215{fill:#C3D6F0;}
	.st216{fill:#B79872;}
	.st217{fill:#A68962;}
	.st218{fill:#70665E;}
	.st219{fill:#8E9791;}
	.st220{fill:#535399;}
	.st221{fill:#E0EBE4;}
	.st222{fill:#C08B96;}
	.st223{fill:#DDEDE7;}
	.st224{fill:#A68048;}
	.st225{fill:#474085;}
	.st226{fill:#7C7C9C;}
	.st227{fill:#9E9DCD;}
	.st228{fill:#4D291F;}
	.st229{fill:#854735;}
	.st230{fill:#9C533F;}
	.st231{fill:#D15F2E;}
	.st232{fill:#C26862;}
	.st233{fill:#464648;}
	.st234{fill:#3A3A3C;}
	.st235{fill:#5E5E63;}
	.st236{fill:#4F4F55;}
	.st237{fill:#7F7F86;}
	.st238{fill:#686871;}
	.st239{fill:#548A72;}
	.st240{fill:#67A98C;}
	.st241{fill:#CC9366;}
	.st242{fill:#CEB76E;}
	.st243{fill:#E1D4AB;}
	.st244{fill:#A87958;}
	.st245{fill:#92B5A5;}
	.st246{fill:#B68B4F;}
	.st247{fill:#D5B788;}
	.st248{fill:#CDE0D8;}
	.st249{fill:#6F6D95;}
	.st250{fill:#DAE1E6;}
	.st251{fill:#E0B7BF;}
	.st252{fill:#C2909D;}
	.st253{fill:#D6AAB5;}
	.st254{fill:#807FB1;}
	.st255{fill:#646384;}
	.st256{fill:#B4B2D8;}
	.st257{fill:#E8E5D4;}
	.st258{fill:#DFC778;}
	.st259{fill:#CF98A4;}
	.st260{fill:#99737F;}
	.st261{fill:none;stroke:#538872;stroke-width:10;stroke-linecap:round;stroke-miterlimit:10;}
	.st262{fill:#87485A;}
	.st263{fill:#A25365;}
	.st264{fill:#A4BDB1;}
	.st265{fill:#C7A23A;}
	.st266{fill:#E6BE3F;}
	.st267{fill:#A77D5A;}
	.st268{fill:#DDD9D5;}
	.st269{fill:#9F7654;}
	.st270{fill:#8B6A4D;}
	.st271{fill:#CACCCB;}
	.st272{fill:#C7C7D3;}
	.st273{fill:#D7D6E8;}
	.st274{fill:#E9DBDE;}
	.st275{fill:#D5CACD;}
	.st276{fill:#C9C6C7;}
	.st277{fill:#A19C9E;}
	.st278{fill:#B8AFB2;}
	.st279{fill:#6C9C84;}
	.st280{fill:#8481B6;}
	.st281{fill:#82653B;}
	.st282{fill:#D1CFC0;}
	.st283{fill:#C6919C;}
	.st284{fill:#A88089;}
	.st285{fill:#CECCBE;}
	.st286{fill:#739EF9;}
	.st287{fill:#A3B8D1;}
	.st288{fill:#B1C8EA;}
	.st289{fill:#6B93DA;}
	.st290{fill:#6D98E4;}
	.st291{fill:#BCC2C7;}
	.st292{fill:#A8ABB0;}
	.st293{fill:#B2B9BF;}
	.st294{fill:#CA9268;}
	.st295{fill:#DDA16E;}
	.st296{fill:#989B9C;}
	.st297{fill:#C03C50;}
	.st298{fill:#853248;}
	.st299{fill:#E3E7EC;}
	.st300{fill:#AC844B;}
	.st301{fill:#C6BB5A;}
	.st302{fill:#94B5A6;}
	.st303{fill:#C7E0D5;}
	.st304{fill:#6892DC;}
	.st305{fill:#B7D5C8;}
	.st306{fill:#A2BBAF;}
	.st307{fill:#528672;}
	.st308{fill:#67A588;}
	.st309{fill:#C5A03A;}
	.st310{fill:#E4BC3F;}
	.st311{fill:#DCE6E1;}
	.st312{fill:#993A52;}
	.st313{fill:#983347;}
</style>
<g id="BULINE">
	<g>
		<g>
			<path id="XMLID_226_" class="st0" d="M504.4,263.6c0,100.1-59.2,186.4-144.6,225.7c0,0,0,0-0.1,0c-0.2,0.1-0.4,0.2-0.7,0.3h0
				c-1.1,0.5-2.3,1-3.4,1.5c-4.1,1.8-8.3,3.5-12.5,5.1C316.1,506.4,286.7,512,256,512c-33.9,0-66.1-6.8-95.6-19.1
				c-0.9-0.4-1.9-0.8-2.8-1.2c-0.2-0.1-0.4-0.2-0.6-0.3c0,0,0,0,0,0C69.1,453.2,7.6,365.6,7.6,263.6c0-120.3,85.5-220.6,199-243.5
				c0,0,0,0,0,0c16-3.2,32.5-4.9,49.4-4.9c6.5,0,12.9,0.2,19.2,0.7c9.8,0.7,19.5,2.1,29,3.9C418.3,42.4,504.4,142.9,504.4,263.6z"/>
		</g>
	</g>
</g>
<g id="ICON_1_">
	<g id="XMLID_1126_">
		<g id="XMLID_86_">
			<circle id="XMLID_225_" class="st16" cx="255.5" cy="69.5" r="69.5"/>
			<path id="XMLID_224_" class="st17" d="M325,69.5c0,38.4-31.1,69.5-69.5,69.5c-4.2,0-8.3-0.4-12.3-1.1
				c32.5-5.8,57.2-34.2,57.2-68.4c0-34.2-24.7-62.6-57.2-68.4c4-0.7,8.1-1.1,12.3-1.1C293.9,0,325,31.1,325,69.5z"/>
			<circle id="XMLID_223_" class="st18" cx="258.5" cy="189.2" r="127.5"/>
			<circle id="XMLID_222_" class="st8" cx="349.3" cy="286.6" r="18.5"/>
			<g id="XMLID_138_">
				<path id="XMLID_221_" class="st11" d="M258.5,432.4L258.5,432.4c-15.3,0-27.7-12.4-27.7-27.7v-50.1h55.4v50.1
					C286.2,420,273.8,432.4,258.5,432.4z"/>
				<path id="XMLID_197_" class="st11" d="M356.8,477.9c1,3.8,1.8,7.8,2.3,11.7c-1.1,0.5-2.3,1-3.4,1.5c-4.1,1.8-8.3,3.5-12.5,5.1
					C316.1,506.4,286.7,512,256,512c-33.9,0-66.1-6.8-95.6-19.1c-0.9-0.4-1.9-0.8-2.8-1.2c0.5-4.7,1.4-9.3,2.6-13.8
					c0.2-0.6,0.3-1.2,0.5-1.8c9.5-34,36.2-60.8,70.1-70.4c8.8-2.5,18.1-3.8,27.7-3.8c3.8,0,7.5,0.2,11.2,0.6
					c0.7,0.1,1.4,0.2,2.1,0.3c1.6,0.2,3.1,0.4,4.6,0.7c0,0,0.1,0,0.1,0c1.6,0.3,3.3,0.6,4.9,1c0.8,0.2,1.6,0.4,2.4,0.6
					c0,0,0,0,0.1,0c0.8,0.2,1.5,0.4,2.3,0.6c0,0,0,0,0,0c0.8,0.2,1.7,0.5,2.5,0.7c1.6,0.5,3.2,1,4.7,1.6c1.6,0.6,3.1,1.2,4.6,1.8
					c0.8,0.3,1.5,0.7,2.3,1c1.3,0.6,2.6,1.2,3.9,1.9c0.1,0,0.1,0,0.2,0.1c0.3,0.1,0.6,0.3,0.9,0.4c0.5,0.3,1.1,0.6,1.6,0.9
					c0.6,0.3,1.2,0.6,1.8,1c0.2,0.1,0.5,0.3,0.7,0.4c0.6,0.3,1.2,0.7,1.8,1.1c0.6,0.3,1.1,0.7,1.6,1c0.3,0.2,0.5,0.3,0.8,0.5
					c0.6,0.4,1.1,0.7,1.7,1.1c0.5,0.3,1,0.7,1.5,1.1c0.2,0.1,0.4,0.3,0.6,0.4c0.6,0.4,1.1,0.8,1.7,1.2c1.8,1.4,3.6,2.8,5.3,4.3
					c0.4,0.3,0.7,0.6,1.1,1c1.6,1.4,3.2,2.9,4.8,4.5h0c1.1,1.1,2.3,2.3,3.4,3.5c0.8,0.9,1.6,1.8,2.4,2.7c1.2,1.4,2.3,2.8,3.4,4.3
					c0.4,0.5,0.7,1,1.1,1.5c0.7,1,1.4,2,2.1,3c0.9,1.3,1.8,2.7,2.6,4.1c0.8,1.4,1.7,2.8,2.4,4.3c0.8,1.4,1.5,2.9,2.2,4.4
					c2.6,5.3,4.7,10.9,6.3,16.7c0,0,0,0,0,0C356.4,476.7,356.6,477.3,356.8,477.9z"/>
				<path id="XMLID_169_" class="st11" d="M359.1,490.1c0-0.1,0-0.3-0.1-0.4h0C359.1,489.8,359.1,489.9,359.1,490.1z"/>
			</g>
			<g id="XMLID_108_">
				<path id="XMLID_110_" class="st8" d="M286.2,354.6v50.1c0,0.3,0,0.7,0,1c-0.1,2-0.4,4-0.8,5.9l-15.7-5.9c0-0.3,0-0.7,0-1v-50.1
					H286.2z"/>
				<path id="XMLID_109_" class="st8" d="M359.1,489.7c-1.1,0.5-2.3,1-3.4,1.5c-4.1,1.8-8.3,3.5-12.5,5.1c-0.5-7.8-2-15.4-4.2-22.7
					c-2.1-6.7-4.8-13.1-8.2-19.2c-0.1-0.3-0.3-0.5-0.5-0.8c-4.5-8.1-10.2-15.5-16.7-22c-8.2-8.2-17.8-15-28.4-20l-15.7-5.9
					c0-0.3,0-0.7,0-1v-2.2c0.7,0.1,1.4,0.2,2.1,0.3c1.6,0.2,3.1,0.4,4.6,0.7c0,0,0.1,0,0.1,0c1.6,0.3,3.3,0.6,4.9,1
					c0.8,0.2,1.6,0.4,2.4,0.6c0,0,0,0,0.1,0c0.8,0.2,1.5,0.4,2.3,0.6h0c0.8,0.2,1.7,0.5,2.5,0.7c1.6,0.5,3.2,1,4.7,1.6
					c1.6,0.6,3.1,1.2,4.6,1.8c0.8,0.3,1.5,0.7,2.3,1c1.3,0.6,2.6,1.2,3.9,1.9c0.1,0,0.1,0,0.2,0.1c0.3,0.1,0.6,0.3,0.9,0.4
					c0.5,0.3,1.1,0.6,1.6,0.9c0.6,0.3,1.2,0.6,1.8,1c0.2,0.1,0.5,0.3,0.7,0.4c0.6,0.3,1.2,0.7,1.8,1.1c0.6,0.3,1.1,0.7,1.6,1
					c0.3,0.2,0.5,0.3,0.8,0.5c0.6,0.4,1.1,0.7,1.7,1.1c0.5,0.3,1,0.7,1.5,1.1c0.2,0.1,0.4,0.3,0.6,0.4c0.6,0.4,1.1,0.8,1.7,1.2
					c1.8,1.4,3.6,2.8,5.3,4.3c0.4,0.3,0.7,0.6,1.1,1c1.6,1.4,3.2,2.9,4.8,4.5c1.1,1.1,2.3,2.3,3.4,3.5c0.8,0.9,1.6,1.8,2.4,2.7
					c1.2,1.4,2.3,2.8,3.4,4.3c0.4,0.5,0.7,1,1.1,1.5c0.7,1,1.4,2,2.1,3c0.9,1.3,1.8,2.7,2.6,4.1c0.8,1.4,1.7,2.8,2.4,4.3
					c0.8,1.4,1.5,2.9,2.2,4.4c2.6,5.3,4.7,10.9,6.3,16.7c0,0,0,0,0,0c0.2,0.6,0.3,1.2,0.5,1.8C357.7,481.8,358.5,485.7,359.1,489.7z
					"/>
			</g>
			<path id="XMLID_106_" class="st11" d="M258.5,387.7L258.5,387.7c-50.2,0-90.9-40.7-90.9-90.9V196.1c0-34.2,27.7-61.9,61.9-61.9
				h58c34.2,0,61.9,27.7,61.9,61.9v100.7C349.3,347,308.7,387.7,258.5,387.7z"/>
			<path id="XMLID_105_" class="st8" d="M349.3,196.1v100.7c0,50.2-40.7,90.9-90.9,90.9c-3.6,0-7.2-0.2-10.7-0.6
				c45.2-5.3,80.2-43.7,80.2-90.2V196.1c0-34.2-27.7-61.9-61.9-61.9h21.4C321.6,134.3,349.3,162,349.3,196.1z"/>
			<path id="XMLID_104_" class="st84" d="M237.5,336.6c0,9.9,8.1,18,18,18s18-8.1,18-18"/>
			<path id="XMLID_103_" class="st61" d="M199.1,268.1c0,7,5.7,12.7,12.7,12.7s12.7-5.7,12.7-12.7"/>
			<path id="XMLID_102_" class="st61" d="M292.5,268.1c0,7,5.7,12.7,12.7,12.7c7,0,12.7-5.7,12.7-12.7"/>
			<circle id="XMLID_93_" class="st11" cx="167.6" cy="286.6" r="18.5"/>
			<polygon id="XMLID_92_" class="st8" points="328,258.3 237.5,198.8 254.5,181.8 330.9,237 			"/>
			<path id="XMLID_90_" class="st18" d="M255.5,193.2c0,0-38.8,44.6-87.9,65.1l-18.5-61.2l26.7-75.8l72-17.8l83.1,13.3l29.1,45.3
				l-10.6,96.2C349.3,258.3,269.1,206.8,255.5,193.2z"/>
			<path id="XMLID_89_" class="st20" d="M247.8,165.7c0,0-47.7,75.7-96.5,92.6c0,0-33.2-19.4-14.4-54.4
				C136.9,203.9,208.2,137.2,247.8,165.7z"/>
			<path id="XMLID_88_" class="st21" d="M360,112c0,0,62.3,60.5,5.6,146.3c0,0-75.9-110.6-208.7-83.5
				C156.9,174.9,294.3,69.7,360,112z"/>
			<path id="XMLID_87_" class="st22" d="M125.6,207.8c-7.2-37.3-2.4-96.4,79.3-138.5c3.5-1.8,7.2-3.2,11.1-4.3
				c24.8-6.8,115.5-24.7,155.6,62.3c0,0-71-52.9-209.9,90C150.1,229.3,128.7,223.7,125.6,207.8z"/>
		</g>
		<path id="XMLID_85_" class="st21" d="M359.7,489.4c-0.2,0.1-0.4,0.2-0.7,0.3c0,0.1,0,0.3,0,0.4c0-0.1,0-0.3-0.1-0.4
			c-1.1,0.5-2.3,1-3.4,1.5c-4.1,1.8-8.3,3.5-12.5,5.1C316.1,506.4,286.7,512,256,512c-33.9,0-66.1-6.8-95.6-19.1
			c-0.9-0.4-1.9-0.8-2.8-1.2c-0.2-0.1-0.4-0.2-0.6-0.3c0,0,0,0,0,0c0.2-5.5,1.5-10.6,3.7-15.3c6.5-14.3,21-24.3,37.8-24.3h120.1
			c4.1,0,8.1,0.6,11.9,1.7c11.5,3.4,21,11.7,25.9,22.6c0,0,0,0,0,0C358.1,480.2,359.4,484.7,359.7,489.4
			C359.8,489.3,359.7,489.4,359.7,489.4z"/>
		<path id="XMLID_71_" class="st22" d="M359.1,489.7c0,0.1,0,0.3,0,0.4C359.1,489.9,359.1,489.8,359.1,489.7c-1.1,0.5-2.3,1-3.4,1.5
			c-3.7-7.4-9.5-13.5-16.7-17.6c-6-3.4-13-5.4-20.5-5.4H198.4c-17,0-31.5,10.2-38,24.8c-0.9-0.4-1.9-0.8-2.8-1.2
			c-0.2-0.1-0.4-0.2-0.6-0.3c0.3-4.8,1.3-9.9,3.1-14.1c6.3-14.9,21.1-25.6,38.3-25.6h120.1c4.3,0,9.4,1,13.3,2.2
			c11.7,3.6,20.2,11.8,24.9,23c1.5,3.6,2.6,8.3,3.1,12.4C359.5,489.5,359.3,489.6,359.1,489.7z"/>
	</g>
</g>
</svg>
